<svg width="39" height="49" viewBox="0 0 39 49" fill="none" xmlns="http://www.w3.org/2000/svg">
<mask id="mask0_2098_81" style="mask-type:alpha" maskUnits="userSpaceOnUse" x="0" y="0" width="39" height="49">
<rect width="39" height="49" fill="#D9D9D9"/>
</mask>
<g mask="url(#mask0_2098_81)">
<path fill-rule="evenodd" clip-rule="evenodd" d="M4.43578 47.4239L0.488642 40L-3.45647 47.4201C-3.80304 48.0518 -4 48.7756 -4 49.5448C-4 52.0027 -1.9887 53.9982 0.488642 53.9982C2.96598 53.9982 4.97724 52.0027 4.97724 49.5448C4.97724 48.7771 4.78106 48.0546 4.43578 47.4239Z" fill="#E6EAF2"/>
<path fill-rule="evenodd" clip-rule="evenodd" d="M4.43578 -0.576127L0.488642 -8L-3.45647 -0.579871C-3.80304 0.0517669 -4 0.775635 -4 1.5448C-4 4.00272 -1.9887 5.99822 0.488642 5.99822C2.96598 5.99822 4.97724 4.00272 4.97724 1.5448C4.97724 0.777142 4.78106 0.0545978 4.43578 -0.576127Z" fill="#E6EAF2"/>
<path fill-rule="evenodd" clip-rule="evenodd" d="M23.4126 23.4239L19.4655 16L15.5204 23.4201C15.1738 24.0518 14.9769 24.7756 14.9769 25.5448C14.9769 28.0027 16.9882 29.9982 19.4655 29.9982C21.9428 29.9982 23.9541 28.0027 23.9541 25.5448C23.9541 24.7771 23.7579 24.0546 23.4126 23.4239Z" fill="#E6EAF2"/>
<path fill-rule="evenodd" clip-rule="evenodd" d="M43.4358 47.4239L39.4886 40L35.5435 47.4201C35.197 48.0518 35 48.7756 35 49.5448C35 52.0027 37.0113 53.9982 39.4886 53.9982C41.966 53.9982 43.9772 52.0027 43.9772 49.5448C43.9772 48.7771 43.7811 48.0546 43.4358 47.4239Z" fill="#E6EAF2"/>
<path fill-rule="evenodd" clip-rule="evenodd" d="M43.413 -0.576127L39.4659 -8L35.5208 -0.579871C35.1742 0.0517669 34.9772 0.775635 34.9772 1.5448C34.9772 4.00272 36.9885 5.99822 39.4659 5.99822C41.9432 5.99822 43.9545 4.00272 43.9545 1.5448C43.9545 0.777142 43.7583 0.0545978 43.413 -0.576127Z" fill="#E6EAF2"/>
</g>
</svg>
