<?xml version="1.0" standalone="no"?>
<!DOCTYPE svg PUBLIC "-//W3C//DTD SVG 1.1//EN" "http://www.w3.org/Graphics/SVG/1.1/DTD/svg11.dtd">
<svg width="100%" height="100%" viewBox="0 0 400 400" version="1.1" xmlns="http://www.w3.org/2000/svg" xmlns:xlink="http://www.w3.org/1999/xlink" xml:space="preserve" style="fill-rule:evenodd;clip-rule:evenodd;stroke-linejoin:round;stroke-miterlimit:1.41421;">
    <g transform="matrix(0.292969,2.30849e-20,2.30849e-20,0.292875,-60,-99.9678)">
        <g transform="matrix(1,0,0,1,204.8,341.333)">
            <path d="M1365.33,682.667C1365.33,305.64 1059.69,0 682.667,0C305.64,0 0,305.64 0,682.667C0,1023.4 249.641,1305.83 576,1357.04L576,880L402.667,880L402.667,682.667L576,682.667L576,532.267C576,361.173 677.917,266.667 833.853,266.667C908.543,266.667 986.667,280 986.667,280L986.667,448L900.584,448C815.78,448 789.334,500.623 789.334,554.61L789.334,682.667L978.667,682.667L948.4,880L789.333,880L789.333,1357.04C1115.69,1305.83 1365.33,1023.4 1365.33,682.667" style="fill:rgb(24,119,242);fill-rule:nonzero;"/>
        </g>
        <g transform="matrix(1,0,0,1,204.8,341.333)">
            <path d="M948.4,880L978.667,682.667L789.333,682.667L789.333,554.609C789.333,500.623 815.78,448 900.584,448L986.667,448L986.667,280C986.667,280 908.543,266.667 833.853,266.667C677.917,266.667 576,361.173 576,532.267L576,682.667L402.667,682.667L402.667,880L576,880L576,1357.04C635.507,1368.81 726.126,1368.35 790.2,1357.67L790.2,888.92L948.4,880" style="fill:white;fill-rule:nonzero;"/>
        </g>
    </g>
</svg>
