<?xml version="1.0" encoding="UTF-8" standalone="no"?>
<!DOCTYPE svg PUBLIC "-//W3C//DTD SVG 1.1//EN" "http://www.w3.org/Graphics/SVG/1.1/DTD/svg11.dtd">
<svg width="100%" height="100%" viewBox="0 0 16 16" version="1.1" xmlns="http://www.w3.org/2000/svg" xmlns:xlink="http://www.w3.org/1999/xlink" xml:space="preserve" xmlns:serif="http://www.serif.com/" style="fill-rule:evenodd;clip-rule:evenodd;stroke-linecap:round;stroke-linejoin:round;stroke-miterlimit:1.5;">
    <g transform="matrix(1,0,0,1,-0.419955,0.324533)">
        <path d="M6.825,1.998C7.79,1.353 9.05,1.353 10.016,1.997C11.482,2.984 12.923,4.037 14.305,5.134C15.045,5.726 15.447,6.644 15.378,7.59C15.259,9.248 15.082,10.797 14.69,12.33C14.364,13.532 13.297,14.384 12.053,14.436C9.88,14.52 7.205,14.52 5.036,14.451C3.821,14.4 2.77,13.589 2.411,12.426C1.959,10.873 1.67,9.305 1.5,7.648C1.402,6.678 1.802,5.725 2.564,5.116C3.935,4.024 5.367,2.977 6.825,1.998Z" style="fill:none;stroke:rgb(69,74,87);stroke-width:1.67px;"/>
    </g>
    <g transform="matrix(0.722104,0,0,0.710743,2.28015,4.32519)">
        <path d="M4.724,14.775L4.724,10.556C4.724,9.657 5.441,8.928 6.327,8.928C7.301,8.928 8.541,8.928 9.516,8.928C10.401,8.928 11.118,9.657 11.118,10.556C11.118,12.286 11.118,14.775 11.118,14.775" style="fill:none;stroke:rgb(69,74,87);stroke-width:2.33px;"/>
    </g>
</svg>
