<?xml version="1.0" standalone="no"?>
<!DOCTYPE svg PUBLIC "-//W3C//DTD SVG 1.1//EN" "http://www.w3.org/Graphics/SVG/1.1/DTD/svg11.dtd">
<svg width="100%" height="100%" viewBox="0 0 36 18" version="1.1" xmlns="http://www.w3.org/2000/svg" xmlns:xlink="http://www.w3.org/1999/xlink" xml:space="preserve" style="fill-rule:evenodd;clip-rule:evenodd;stroke-linejoin:round;stroke-miterlimit:1.41421;">
    <g transform="matrix(0.818182,0,0,0.818182,1.63636,0)">
        <path d="M9,22L8.768,21.999L8.537,21.994L8.308,21.987L8.08,21.977L7.854,21.964L7.629,21.948L7.407,21.93L7.186,21.909L6.967,21.885L6.751,21.858L6.536,21.829L6.324,21.798L6.113,21.764L5.905,21.727L5.7,21.688L5.497,21.646L5.296,21.602L5.098,21.556L4.903,21.508L4.71,21.457L4.52,21.404L4.333,21.349L4.149,21.291L3.968,21.231L3.79,21.17L3.615,21.106L3.444,21.04L3.275,20.972L3.11,20.903L2.949,20.831L2.791,20.757L2.636,20.682L2.485,20.605L2.338,20.526L2.195,20.445L2.055,20.362L1.92,20.278L1.788,20.192L1.66,20.105L1.598,20.061L1.537,20.016L1.477,19.971L1.418,19.925L1.36,19.88L1.303,19.833L1.247,19.787L1.192,19.74L1.139,19.693L1.086,19.645L1.035,19.597L0.985,19.549L0.935,19.5L0.887,19.451L0.841,19.402L0.795,19.352L0.751,19.302L0.707,19.252L0.665,19.201L0.624,19.15L0.585,19.099L0.546,19.047L0.509,18.995L0.473,18.943L0.438,18.891L0.405,18.838L0.372,18.785L0.341,18.732L0.312,18.678L0.283,18.625L0.256,18.571L0.23,18.516L0.206,18.462L0.183,18.407L0.161,18.352L0.141,18.297L0.121,18.241L0.104,18.185L0.087,18.129L0.072,18.073L0.059,18.017L0.046,17.96L0.036,17.903L0.026,17.846L0.018,17.789L0.012,17.732L0.007,17.674L0.003,17.616L0.001,17.558L0,17.5L0.001,17.442L0.003,17.384L0.007,17.326L0.012,17.268L0.018,17.211L0.026,17.154L0.036,17.097L0.046,17.04L0.059,16.983L0.072,16.927L0.087,16.871L0.104,16.815L0.121,16.759L0.141,16.703L0.161,16.648L0.183,16.593L0.206,16.538L0.23,16.484L0.256,16.429L0.283,16.375L0.312,16.322L0.341,16.268L0.372,16.215L0.405,16.162L0.438,16.109L0.473,16.057L0.509,16.005L0.546,15.953L0.585,15.901L0.624,15.85L0.665,15.799L0.707,15.748L0.751,15.698L0.795,15.648L0.841,15.598L0.887,15.549L0.935,15.5L0.985,15.451L1.035,15.403L1.086,15.355L1.139,15.307L1.192,15.26L1.247,15.213L1.303,15.167L1.36,15.12L1.418,15.075L1.477,15.029L1.537,14.984L1.598,14.939L1.66,14.895L1.788,14.808L1.92,14.722L2.055,14.638L2.195,14.555L2.338,14.474L2.485,14.395L2.636,14.318L2.791,14.243L2.949,14.169L3.11,14.097L3.275,14.028L3.444,13.96L3.615,13.894L3.79,13.83L3.968,13.769L4.149,13.709L4.333,13.651L4.52,13.596L4.71,13.543L4.903,13.492L5.098,13.444L5.296,13.398L5.497,13.354L5.7,13.312L5.905,13.273L6.113,13.236L6.324,13.202L6.536,13.171L6.751,13.142L6.967,13.115L7.186,13.091L7.407,13.07L7.629,13.052L7.854,13.036L8.08,13.023L8.308,13.013L8.537,13.006L8.768,13.001L9,13L9.232,13.001L9.463,13.006L9.692,13.013L9.92,13.023L10.146,13.036L10.371,13.052L10.593,13.07L10.814,13.091L11.033,13.115L11.249,13.142L11.464,13.171L11.676,13.202L11.887,13.236L12.095,13.273L12.3,13.312L12.503,13.354L12.704,13.398L12.902,13.444L13.097,13.492L13.29,13.543L13.48,13.596L13.667,13.651L13.851,13.709L14.032,13.769L14.21,13.83L14.385,13.894L14.556,13.96L14.725,14.028L14.89,14.097L15.051,14.169L15.209,14.243L15.364,14.318L15.515,14.395L15.662,14.474L15.805,14.555L15.945,14.638L16.08,14.722L16.212,14.808L16.34,14.895L16.402,14.939L16.463,14.984L16.523,15.029L16.582,15.075L16.64,15.12L16.697,15.167L16.753,15.213L16.808,15.26L16.861,15.307L16.914,15.355L16.965,15.403L17.015,15.451L17.065,15.5L17.113,15.549L17.159,15.598L17.205,15.648L17.249,15.698L17.293,15.748L17.335,15.799L17.376,15.85L17.415,15.901L17.454,15.953L17.491,16.005L17.527,16.057L17.562,16.109L17.595,16.162L17.628,16.215L17.659,16.268L17.688,16.322L17.717,16.375L17.744,16.429L17.77,16.484L17.794,16.538L17.817,16.593L17.839,16.648L17.859,16.703L17.879,16.759L17.896,16.815L17.913,16.871L17.928,16.927L17.941,16.983L17.954,17.04L17.964,17.097L17.974,17.154L17.982,17.211L17.988,17.268L17.993,17.326L17.997,17.384L17.999,17.442L18,17.5L17.999,17.558L17.997,17.616L17.993,17.674L17.988,17.732L17.982,17.789L17.974,17.846L17.964,17.903L17.954,17.96L17.941,18.017L17.928,18.073L17.913,18.129L17.896,18.185L17.879,18.241L17.859,18.297L17.839,18.352L17.817,18.407L17.794,18.462L17.77,18.516L17.744,18.571L17.717,18.625L17.688,18.678L17.659,18.732L17.628,18.785L17.595,18.838L17.562,18.891L17.527,18.943L17.491,18.995L17.454,19.047L17.415,19.099L17.376,19.15L17.335,19.201L17.293,19.252L17.249,19.302L17.205,19.352L17.159,19.402L17.113,19.451L17.065,19.5L17.015,19.549L16.965,19.597L16.914,19.645L16.861,19.693L16.808,19.74L16.753,19.787L16.697,19.833L16.64,19.88L16.582,19.925L16.523,19.971L16.463,20.016L16.402,20.061L16.34,20.105L16.212,20.192L16.08,20.278L15.945,20.362L15.805,20.445L15.662,20.526L15.515,20.605L15.364,20.682L15.209,20.757L15.051,20.831L14.89,20.903L14.725,20.972L14.556,21.04L14.385,21.106L14.21,21.17L14.032,21.231L13.851,21.291L13.667,21.349L13.48,21.404L13.29,21.457L13.097,21.508L12.902,21.556L12.704,21.602L12.503,21.646L12.3,21.688L12.095,21.727L11.887,21.764L11.676,21.798L11.464,21.829L11.249,21.858L11.033,21.885L10.814,21.909L10.593,21.93L10.371,21.948L10.146,21.964L9.92,21.977L9.692,21.987L9.463,21.994L9.232,21.999L9,22ZM9,19.556L9.201,19.554L9.401,19.55L9.6,19.544L9.796,19.535L9.991,19.524L10.184,19.511L10.376,19.495L10.565,19.477L10.752,19.456L10.937,19.434L11.12,19.409L11.301,19.382L11.479,19.353L11.654,19.322L11.827,19.29L11.997,19.255L12.165,19.218L12.329,19.18L12.491,19.14L12.649,19.098L12.804,19.054L12.956,19.01L13.105,18.963L13.25,18.916L13.391,18.867L13.529,18.816L13.662,18.765L13.792,18.713L13.918,18.66L14.04,18.606L14.157,18.551L14.271,18.496L14.379,18.44L14.484,18.384L14.583,18.328L14.678,18.272L14.768,18.216L14.853,18.16L14.939,18.101L14.972,18.078L15.009,18.051L15.044,18.024L15.079,17.998L15.112,17.972L15.144,17.946L15.174,17.92L15.204,17.895L15.232,17.871L15.258,17.846L15.284,17.823L15.308,17.799L15.331,17.777L15.352,17.755L15.373,17.733L15.392,17.712L15.41,17.692L15.426,17.673L15.442,17.654L15.456,17.636L15.469,17.619L15.482,17.603L15.493,17.588L15.503,17.573L15.512,17.56L15.52,17.547L15.527,17.535L15.533,17.525L15.538,17.515L15.543,17.506L15.546,17.5L15.543,17.494L15.538,17.485L15.533,17.475L15.527,17.465L15.52,17.453L15.512,17.44L15.503,17.427L15.493,17.412L15.482,17.397L15.469,17.381L15.456,17.364L15.442,17.346L15.426,17.327L15.41,17.308L15.392,17.288L15.373,17.267L15.352,17.245L15.331,17.223L15.308,17.201L15.284,17.177L15.258,17.154L15.232,17.129L15.204,17.105L15.174,17.08L15.144,17.054L15.112,17.028L15.079,17.002L15.044,16.976L15.009,16.949L14.972,16.922L14.939,16.899L14.853,16.84L14.768,16.784L14.678,16.728L14.583,16.672L14.484,16.616L14.379,16.56L14.271,16.504L14.157,16.449L14.04,16.394L13.918,16.34L13.792,16.287L13.662,16.235L13.529,16.184L13.391,16.133L13.25,16.084L13.105,16.037L12.956,15.99L12.804,15.946L12.649,15.902L12.491,15.86L12.329,15.82L12.165,15.782L11.997,15.745L11.827,15.71L11.654,15.678L11.479,15.647L11.301,15.618L11.12,15.591L10.937,15.566L10.752,15.544L10.565,15.523L10.376,15.505L10.184,15.489L9.991,15.476L9.796,15.465L9.6,15.456L9.401,15.45L9.201,15.446L9,15.444L8.799,15.446L8.599,15.45L8.4,15.456L8.204,15.465L8.009,15.476L7.816,15.489L7.624,15.505L7.435,15.523L7.248,15.544L7.063,15.566L6.88,15.591L6.699,15.618L6.521,15.647L6.346,15.678L6.173,15.71L6.003,15.745L5.835,15.782L5.671,15.82L5.509,15.86L5.351,15.902L5.196,15.946L5.044,15.99L4.895,16.037L4.75,16.084L4.609,16.133L4.471,16.184L4.338,16.235L4.208,16.287L4.082,16.34L3.96,16.394L3.843,16.449L3.729,16.504L3.621,16.56L3.516,16.616L3.417,16.672L3.322,16.728L3.232,16.784L3.147,16.84L3.061,16.899L3.028,16.922L2.991,16.949L2.956,16.976L2.921,17.002L2.888,17.028L2.856,17.054L2.826,17.08L2.796,17.105L2.768,17.129L2.742,17.154L2.716,17.177L2.692,17.201L2.669,17.223L2.648,17.245L2.627,17.267L2.608,17.288L2.59,17.308L2.574,17.327L2.558,17.346L2.544,17.364L2.531,17.381L2.518,17.397L2.507,17.412L2.497,17.427L2.488,17.44L2.48,17.453L2.473,17.465L2.467,17.475L2.462,17.485L2.457,17.494L2.454,17.5L2.462,17.515L2.467,17.525L2.473,17.535L2.48,17.547L2.488,17.56L2.497,17.573L2.507,17.588L2.518,17.603L2.531,17.619L2.544,17.636L2.558,17.654L2.574,17.673L2.59,17.692L2.608,17.712L2.627,17.733L2.648,17.755L2.669,17.777L2.692,17.799L2.716,17.823L2.742,17.846L2.768,17.871L2.796,17.895L2.826,17.92L2.856,17.946L2.888,17.972L2.921,17.998L2.956,18.024L2.991,18.051L3.028,18.078L3.061,18.101L3.147,18.16L3.232,18.216L3.322,18.272L3.417,18.328L3.516,18.384L3.621,18.44L3.729,18.496L3.843,18.551L3.96,18.606L4.082,18.66L4.208,18.713L4.338,18.765L4.471,18.816L4.609,18.867L4.75,18.916L4.895,18.963L5.044,19.01L5.196,19.054L5.351,19.098L5.509,19.14L5.671,19.18L5.835,19.218L6.003,19.255L6.173,19.29L6.346,19.322L6.521,19.353L6.699,19.382L6.88,19.409L7.063,19.434L7.248,19.456L7.435,19.477L7.624,19.495L7.816,19.511L8.009,19.524L8.204,19.535L8.4,19.544L8.599,19.55L8.799,19.554L9,19.556Z" style="fill:white;"/>
    </g>
    <g transform="matrix(0.818182,0,0,0.818182,19.6364,0)">
        <path d="M9,22C13.971,22 18,19.985 18,17.5C18,15.015 13.971,13 9,13C4.029,13 0,15.015 0,17.5C0,19.985 4.029,22 9,22Z" style="fill:white;fill-opacity:0.301961;fill-rule:nonzero;"/>
        <path d="M9,22L8.768,21.999L8.537,21.994L8.308,21.987L8.08,21.977L7.854,21.964L7.629,21.948L7.407,21.93L7.186,21.909L6.967,21.885L6.751,21.858L6.536,21.829L6.324,21.798L6.113,21.764L5.905,21.727L5.7,21.688L5.497,21.646L5.296,21.602L5.098,21.556L4.903,21.508L4.71,21.457L4.52,21.404L4.333,21.349L4.149,21.291L3.968,21.231L3.79,21.17L3.615,21.106L3.444,21.04L3.275,20.972L3.11,20.903L2.949,20.831L2.791,20.757L2.636,20.682L2.485,20.605L2.338,20.526L2.195,20.445L2.055,20.362L1.92,20.278L1.788,20.192L1.66,20.105L1.598,20.061L1.537,20.016L1.477,19.971L1.418,19.925L1.36,19.88L1.303,19.833L1.247,19.787L1.192,19.74L1.139,19.693L1.086,19.645L1.035,19.597L0.985,19.549L0.935,19.5L0.887,19.451L0.841,19.402L0.795,19.352L0.751,19.302L0.707,19.252L0.665,19.201L0.624,19.15L0.585,19.099L0.546,19.047L0.509,18.995L0.473,18.943L0.438,18.891L0.405,18.838L0.372,18.785L0.341,18.732L0.312,18.678L0.283,18.625L0.256,18.571L0.23,18.516L0.206,18.462L0.183,18.407L0.161,18.352L0.141,18.297L0.121,18.241L0.104,18.185L0.087,18.129L0.072,18.073L0.059,18.017L0.046,17.96L0.036,17.903L0.026,17.846L0.018,17.789L0.012,17.732L0.007,17.674L0.003,17.616L0.001,17.558L0,17.5L0.001,17.442L0.003,17.384L0.007,17.326L0.012,17.268L0.018,17.211L0.026,17.154L0.036,17.097L0.046,17.04L0.059,16.983L0.072,16.927L0.087,16.871L0.104,16.815L0.121,16.759L0.141,16.703L0.161,16.648L0.183,16.593L0.206,16.538L0.23,16.484L0.256,16.429L0.283,16.375L0.312,16.322L0.341,16.268L0.372,16.215L0.405,16.162L0.438,16.109L0.473,16.057L0.509,16.005L0.546,15.953L0.585,15.901L0.624,15.85L0.665,15.799L0.707,15.748L0.751,15.698L0.795,15.648L0.841,15.598L0.887,15.549L0.935,15.5L0.985,15.451L1.035,15.403L1.086,15.355L1.139,15.307L1.192,15.26L1.247,15.213L1.303,15.167L1.36,15.12L1.418,15.075L1.477,15.029L1.537,14.984L1.598,14.939L1.66,14.895L1.788,14.808L1.92,14.722L2.055,14.638L2.195,14.555L2.338,14.474L2.485,14.395L2.636,14.318L2.791,14.243L2.949,14.169L3.11,14.097L3.275,14.028L3.444,13.96L3.615,13.894L3.79,13.83L3.968,13.769L4.149,13.709L4.333,13.651L4.52,13.596L4.71,13.543L4.903,13.492L5.098,13.444L5.296,13.398L5.497,13.354L5.7,13.312L5.905,13.273L6.113,13.236L6.324,13.202L6.536,13.171L6.751,13.142L6.967,13.115L7.186,13.091L7.407,13.07L7.629,13.052L7.854,13.036L8.08,13.023L8.308,13.013L8.537,13.006L8.768,13.001L9,13L9.232,13.001L9.463,13.006L9.692,13.013L9.92,13.023L10.146,13.036L10.371,13.052L10.593,13.07L10.814,13.091L11.033,13.115L11.249,13.142L11.464,13.171L11.676,13.202L11.887,13.236L12.095,13.273L12.3,13.312L12.503,13.354L12.704,13.398L12.902,13.444L13.097,13.492L13.29,13.543L13.48,13.596L13.667,13.651L13.851,13.709L14.032,13.769L14.21,13.83L14.385,13.894L14.556,13.96L14.725,14.028L14.89,14.097L15.051,14.169L15.209,14.243L15.364,14.318L15.515,14.395L15.662,14.474L15.805,14.555L15.945,14.638L16.08,14.722L16.212,14.808L16.34,14.895L16.402,14.939L16.463,14.984L16.523,15.029L16.582,15.075L16.64,15.12L16.697,15.167L16.753,15.213L16.808,15.26L16.861,15.307L16.914,15.355L16.965,15.403L17.015,15.451L17.065,15.5L17.113,15.549L17.159,15.598L17.205,15.648L17.249,15.698L17.293,15.748L17.335,15.799L17.376,15.85L17.415,15.901L17.454,15.953L17.491,16.005L17.527,16.057L17.562,16.109L17.595,16.162L17.628,16.215L17.659,16.268L17.688,16.322L17.717,16.375L17.744,16.429L17.77,16.484L17.794,16.538L17.817,16.593L17.839,16.648L17.859,16.703L17.879,16.759L17.896,16.815L17.913,16.871L17.928,16.927L17.941,16.983L17.954,17.04L17.964,17.097L17.974,17.154L17.982,17.211L17.988,17.268L17.993,17.326L17.997,17.384L17.999,17.442L18,17.5L17.999,17.558L17.997,17.616L17.993,17.674L17.988,17.732L17.982,17.789L17.974,17.846L17.964,17.903L17.954,17.96L17.941,18.017L17.928,18.073L17.913,18.129L17.896,18.185L17.879,18.241L17.859,18.297L17.839,18.352L17.817,18.407L17.794,18.462L17.77,18.516L17.744,18.571L17.717,18.625L17.688,18.678L17.659,18.732L17.628,18.785L17.595,18.838L17.562,18.891L17.527,18.943L17.491,18.995L17.454,19.047L17.415,19.099L17.376,19.15L17.335,19.201L17.293,19.252L17.249,19.302L17.205,19.352L17.159,19.402L17.113,19.451L17.065,19.5L17.015,19.549L16.965,19.597L16.914,19.645L16.861,19.693L16.808,19.74L16.753,19.787L16.697,19.833L16.64,19.88L16.582,19.925L16.523,19.971L16.463,20.016L16.402,20.061L16.34,20.105L16.212,20.192L16.08,20.278L15.945,20.362L15.805,20.445L15.662,20.526L15.515,20.605L15.364,20.682L15.209,20.757L15.051,20.831L14.89,20.903L14.725,20.972L14.556,21.04L14.385,21.106L14.21,21.17L14.032,21.231L13.851,21.291L13.667,21.349L13.48,21.404L13.29,21.457L13.097,21.508L12.902,21.556L12.704,21.602L12.503,21.646L12.3,21.688L12.095,21.727L11.887,21.764L11.676,21.798L11.464,21.829L11.249,21.858L11.033,21.885L10.814,21.909L10.593,21.93L10.371,21.948L10.146,21.964L9.92,21.977L9.692,21.987L9.463,21.994L9.232,21.999L9,22ZM9,19.556L9.201,19.554L9.401,19.55L9.6,19.544L9.796,19.535L9.991,19.524L10.184,19.511L10.376,19.495L10.565,19.477L10.752,19.456L10.937,19.434L11.12,19.409L11.301,19.382L11.479,19.353L11.654,19.322L11.827,19.29L11.997,19.255L12.165,19.218L12.329,19.18L12.491,19.14L12.649,19.098L12.804,19.054L12.956,19.01L13.105,18.963L13.25,18.916L13.391,18.867L13.529,18.816L13.662,18.765L13.792,18.713L13.918,18.66L14.04,18.606L14.157,18.551L14.271,18.496L14.379,18.44L14.484,18.384L14.583,18.328L14.678,18.272L14.768,18.216L14.853,18.16L14.939,18.101L14.972,18.078L15.009,18.051L15.044,18.024L15.079,17.998L15.112,17.972L15.144,17.946L15.174,17.92L15.204,17.895L15.231,17.871L15.258,17.846L15.284,17.823L15.308,17.799L15.331,17.777L15.352,17.755L15.373,17.733L15.392,17.712L15.41,17.692L15.426,17.673L15.442,17.654L15.456,17.636L15.469,17.619L15.482,17.603L15.493,17.588L15.503,17.573L15.512,17.56L15.52,17.547L15.527,17.535L15.533,17.525L15.538,17.515L15.543,17.506L15.546,17.5L15.543,17.494L15.538,17.485L15.533,17.475L15.527,17.465L15.52,17.453L15.512,17.44L15.503,17.427L15.493,17.412L15.482,17.397L15.469,17.381L15.456,17.364L15.442,17.346L15.426,17.327L15.41,17.308L15.392,17.288L15.373,17.267L15.352,17.245L15.331,17.223L15.308,17.201L15.284,17.177L15.258,17.154L15.231,17.129L15.204,17.105L15.174,17.08L15.144,17.054L15.112,17.028L15.079,17.002L15.044,16.976L15.009,16.949L14.972,16.922L14.939,16.899L14.853,16.84L14.768,16.784L14.678,16.728L14.583,16.672L14.484,16.616L14.379,16.56L14.271,16.504L14.157,16.449L14.04,16.394L13.918,16.34L13.792,16.287L13.662,16.235L13.529,16.184L13.391,16.133L13.25,16.084L13.105,16.037L12.956,15.99L12.804,15.946L12.649,15.902L12.491,15.86L12.329,15.82L12.165,15.782L11.997,15.745L11.827,15.71L11.654,15.678L11.479,15.647L11.301,15.618L11.12,15.591L10.937,15.566L10.752,15.544L10.565,15.523L10.376,15.505L10.184,15.489L9.991,15.476L9.796,15.465L9.6,15.456L9.401,15.45L9.201,15.446L9,15.444L8.799,15.446L8.599,15.45L8.4,15.456L8.204,15.465L8.009,15.476L7.816,15.489L7.624,15.505L7.435,15.523L7.248,15.544L7.063,15.566L6.88,15.591L6.699,15.618L6.521,15.647L6.346,15.678L6.173,15.71L6.003,15.745L5.835,15.782L5.671,15.82L5.509,15.86L5.351,15.902L5.196,15.946L5.044,15.99L4.895,16.037L4.75,16.084L4.609,16.133L4.471,16.184L4.338,16.235L4.208,16.287L4.082,16.34L3.96,16.394L3.843,16.449L3.729,16.504L3.621,16.56L3.516,16.616L3.417,16.672L3.322,16.728L3.232,16.784L3.147,16.84L3.061,16.899L3.028,16.922L2.991,16.949L2.956,16.976L2.921,17.002L2.888,17.028L2.856,17.054L2.826,17.08L2.796,17.105L2.768,17.129L2.742,17.154L2.716,17.177L2.692,17.201L2.669,17.223L2.648,17.245L2.627,17.267L2.608,17.288L2.59,17.308L2.574,17.327L2.558,17.346L2.544,17.364L2.531,17.381L2.518,17.397L2.507,17.412L2.497,17.427L2.488,17.44L2.48,17.453L2.473,17.465L2.467,17.475L2.462,17.485L2.457,17.494L2.454,17.5L2.462,17.515L2.467,17.525L2.473,17.535L2.48,17.547L2.488,17.56L2.497,17.573L2.507,17.588L2.518,17.603L2.531,17.619L2.544,17.636L2.558,17.654L2.574,17.673L2.59,17.692L2.608,17.712L2.627,17.733L2.648,17.755L2.669,17.777L2.692,17.799L2.716,17.823L2.742,17.846L2.768,17.871L2.796,17.895L2.826,17.92L2.856,17.946L2.888,17.972L2.921,17.998L2.956,18.024L2.991,18.051L3.028,18.078L3.061,18.101L3.147,18.16L3.232,18.216L3.322,18.272L3.417,18.328L3.516,18.384L3.621,18.44L3.729,18.496L3.843,18.551L3.96,18.606L4.082,18.66L4.208,18.713L4.338,18.765L4.471,18.816L4.609,18.867L4.75,18.916L4.895,18.963L5.044,19.01L5.196,19.054L5.351,19.098L5.509,19.14L5.671,19.18L5.835,19.218L6.003,19.255L6.173,19.29L6.346,19.322L6.521,19.353L6.699,19.382L6.88,19.409L7.063,19.434L7.248,19.456L7.435,19.477L7.624,19.495L7.816,19.511L8.009,19.524L8.204,19.535L8.4,19.544L8.599,19.55L8.799,19.554L9,19.556Z" style="fill:white;"/>
    </g>
    <g transform="matrix(0.818182,0,0,0.818182,1.63636,0)">
        <path d="M8.79,10L8.661,9.998L8.533,9.993L8.405,9.985L8.279,9.974L8.153,9.96L8.029,9.942L7.905,9.922L7.782,9.898L7.661,9.872L7.541,9.843L7.421,9.81L7.303,9.775L7.186,9.737L7.071,9.697L6.957,9.653L6.844,9.607L6.732,9.558L6.622,9.507L6.514,9.453L6.407,9.397L6.301,9.338L6.197,9.276L6.095,9.212L5.995,9.146L5.896,9.078L5.799,9.007L5.703,8.934L5.61,8.858L5.518,8.781L5.428,8.701L5.34,8.619L5.255,8.536L5.171,8.45L5.089,8.362L5.009,8.272L4.932,8.18L4.857,8.087L4.783,7.992L4.713,7.894L4.644,7.796L4.578,7.695L4.514,7.593L4.453,7.489L4.394,7.383L4.337,7.276L4.283,7.168L4.232,7.058L4.183,6.946L4.137,6.833L4.093,6.719L4.053,6.604L4.015,6.487L3.98,6.369L3.948,6.25L3.918,6.129L3.892,6.008L3.868,5.885L3.848,5.761L3.83,5.637L3.816,5.511L3.805,5.385L3.797,5.257L3.792,5.129L3.79,5L3.792,4.871L3.797,4.743L3.805,4.615L3.816,4.489L3.83,4.363L3.848,4.239L3.868,4.115L3.892,3.992L3.918,3.871L3.948,3.75L3.98,3.631L4.015,3.513L4.053,3.396L4.093,3.281L4.137,3.167L4.183,3.054L4.232,2.942L4.283,2.832L4.337,2.724L4.394,2.617L4.453,2.511L4.514,2.407L4.578,2.305L4.644,2.204L4.713,2.106L4.783,2.008L4.857,1.913L4.932,1.82L5.009,1.728L5.089,1.638L5.171,1.55L5.255,1.464L5.34,1.381L5.428,1.299L5.518,1.219L5.61,1.142L5.703,1.066L5.799,0.993L5.896,0.922L5.995,0.854L6.095,0.788L6.197,0.724L6.301,0.662L6.407,0.603L6.514,0.547L6.622,0.493L6.732,0.442L6.844,0.393L6.957,0.347L7.071,0.303L7.186,0.263L7.303,0.225L7.421,0.19L7.541,0.157L7.661,0.128L7.782,0.102L7.905,0.078L8.029,0.058L8.153,0.04L8.279,0.026L8.405,0.015L8.533,0.007L8.661,0.002L8.79,0L8.919,0.002L9.047,0.007L9.175,0.015L9.301,0.026L9.427,0.04L9.552,0.058L9.675,0.078L9.798,0.102L9.919,0.128L10.04,0.157L10.159,0.19L10.277,0.225L10.394,0.263L10.509,0.303L10.623,0.347L10.736,0.393L10.848,0.442L10.958,0.493L11.066,0.547L11.173,0.603L11.279,0.662L11.383,0.724L11.485,0.788L11.586,0.854L11.685,0.922L11.782,0.993L11.877,1.066L11.971,1.142L12.062,1.219L12.152,1.299L12.24,1.381L12.326,1.464L12.409,1.55L12.491,1.638L12.571,1.728L12.648,1.82L12.724,1.913L12.797,2.008L12.868,2.106L12.936,2.204L13.002,2.305L13.066,2.407L13.128,2.511L13.187,2.617L13.243,2.724L13.297,2.832L13.348,2.942L13.397,3.054L13.443,3.167L13.487,3.281L13.527,3.396L13.565,3.513L13.6,3.631L13.633,3.75L13.662,3.871L13.689,3.992L13.712,4.115L13.732,4.239L13.75,4.363L13.764,4.489L13.776,4.615L13.784,4.743L13.788,4.871L13.79,5L13.788,5.129L13.784,5.257L13.776,5.385L13.764,5.511L13.75,5.637L13.732,5.761L13.712,5.885L13.689,6.008L13.662,6.129L13.633,6.25L13.6,6.369L13.565,6.487L13.527,6.604L13.487,6.719L13.443,6.833L13.397,6.946L13.348,7.058L13.297,7.168L13.243,7.276L13.187,7.383L13.128,7.489L13.066,7.593L13.002,7.695L12.936,7.796L12.868,7.894L12.797,7.992L12.724,8.087L12.648,8.18L12.571,8.272L12.491,8.362L12.409,8.45L12.326,8.536L12.24,8.619L12.152,8.701L12.062,8.781L11.971,8.858L11.877,8.934L11.782,9.007L11.685,9.078L11.586,9.146L11.485,9.212L11.383,9.276L11.279,9.338L11.173,9.397L11.066,9.453L10.958,9.507L10.848,9.558L10.736,9.607L10.623,9.653L10.509,9.697L10.394,9.737L10.277,9.775L10.159,9.81L10.04,9.843L9.919,9.872L9.798,9.898L9.675,9.922L9.552,9.942L9.427,9.96L9.301,9.974L9.175,9.985L9.047,9.993L8.919,9.998L8.79,10ZM8.79,7.555L8.857,7.555L8.924,7.552L8.989,7.548L9.054,7.542L9.119,7.535L9.182,7.526L9.245,7.515L9.308,7.503L9.369,7.49L9.431,7.475L9.491,7.459L9.551,7.441L9.61,7.422L9.669,7.401L9.727,7.379L9.784,7.356L9.841,7.331L9.897,7.305L9.952,7.277L10.006,7.248L10.06,7.218L10.113,7.187L10.166,7.154L10.217,7.12L10.268,7.085L10.318,7.049L10.367,7.011L10.415,6.973L10.462,6.933L10.508,6.892L10.553,6.85L10.597,6.807L10.64,6.763L10.682,6.718L10.723,6.672L10.763,6.624L10.802,6.576L10.839,6.528L10.875,6.478L10.91,6.427L10.944,6.376L10.977,6.323L11.008,6.27L11.038,6.216L11.067,6.162L11.095,6.107L11.121,6.051L11.146,5.994L11.169,5.937L11.191,5.879L11.212,5.82L11.231,5.761L11.249,5.701L11.265,5.64L11.28,5.579L11.293,5.518L11.305,5.455L11.316,5.392L11.325,5.329L11.332,5.264L11.338,5.199L11.342,5.134L11.345,5.067L11.345,5L11.345,4.933L11.342,4.866L11.338,4.801L11.332,4.736L11.325,4.671L11.316,4.608L11.305,4.545L11.293,4.482L11.28,4.421L11.265,4.36L11.249,4.299L11.231,4.239L11.212,4.18L11.191,4.121L11.169,4.063L11.146,4.006L11.121,3.949L11.095,3.893L11.067,3.838L11.038,3.784L11.008,3.73L10.977,3.677L10.944,3.624L10.91,3.573L10.875,3.522L10.839,3.472L10.802,3.424L10.763,3.376L10.723,3.328L10.682,3.282L10.64,3.237L10.597,3.193L10.553,3.15L10.508,3.108L10.462,3.067L10.415,3.027L10.367,2.989L10.318,2.951L10.268,2.915L10.217,2.88L10.166,2.846L10.113,2.813L10.06,2.782L10.006,2.752L9.952,2.723L9.897,2.695L9.841,2.669L9.784,2.644L9.727,2.621L9.669,2.599L9.61,2.578L9.551,2.559L9.491,2.541L9.431,2.525L9.369,2.51L9.308,2.497L9.245,2.485L9.182,2.474L9.119,2.465L9.054,2.458L8.989,2.452L8.924,2.448L8.857,2.445L8.79,2.445L8.723,2.445L8.657,2.448L8.591,2.452L8.526,2.458L8.462,2.465L8.398,2.474L8.335,2.485L8.272,2.497L8.211,2.51L8.15,2.525L8.089,2.541L8.029,2.559L7.97,2.578L7.911,2.599L7.853,2.621L7.796,2.644L7.739,2.669L7.684,2.695L7.628,2.723L7.574,2.752L7.52,2.782L7.467,2.813L7.415,2.846L7.363,2.88L7.312,2.915L7.263,2.951L7.214,2.989L7.166,3.027L7.119,3.067L7.072,3.108L7.027,3.15L6.983,3.193L6.94,3.237L6.898,3.282L6.857,3.328L6.817,3.376L6.779,3.424L6.741,3.472L6.705,3.522L6.67,3.573L6.636,3.624L6.603,3.677L6.572,3.73L6.542,3.784L6.513,3.838L6.485,3.893L6.459,3.949L6.435,4.006L6.411,4.063L6.389,4.121L6.368,4.18L6.349,4.239L6.331,4.299L6.315,4.36L6.3,4.421L6.287,4.482L6.275,4.545L6.264,4.608L6.255,4.671L6.248,4.736L6.242,4.801L6.238,4.866L6.236,4.933L6.235,5L6.236,5.067L6.238,5.134L6.242,5.199L6.248,5.264L6.255,5.329L6.264,5.392L6.275,5.455L6.287,5.518L6.3,5.579L6.315,5.64L6.331,5.701L6.349,5.761L6.368,5.82L6.389,5.879L6.411,5.937L6.435,5.994L6.459,6.051L6.485,6.107L6.513,6.162L6.542,6.216L6.572,6.27L6.603,6.323L6.636,6.376L6.67,6.427L6.705,6.478L6.741,6.528L6.779,6.576L6.817,6.624L6.857,6.672L6.898,6.718L6.94,6.763L6.983,6.807L7.027,6.85L7.072,6.892L7.119,6.933L7.166,6.973L7.214,7.011L7.263,7.049L7.312,7.085L7.363,7.12L7.415,7.154L7.467,7.187L7.52,7.218L7.574,7.248L7.628,7.277L7.684,7.305L7.74,7.331L7.796,7.356L7.853,7.379L7.911,7.401L7.97,7.422L8.029,7.441L8.089,7.459L8.15,7.475L8.211,7.49L8.272,7.503L8.335,7.515L8.398,7.526L8.462,7.535L8.526,7.542L8.591,7.548L8.657,7.552L8.723,7.555L8.79,7.555Z" style="fill:white;"/>
    </g>
    <g transform="matrix(0.818182,0,0,0.818182,19.6364,0)">
        <path d="M8.79,10C11.552,10 13.79,7.761 13.79,5C13.79,2.239 11.552,0 8.79,0C6.029,0 3.79,2.239 3.79,5C3.79,7.761 6.029,10 8.79,10Z" style="fill:white;fill-opacity:0.301961;fill-rule:nonzero;"/>
        <path d="M8.79,10L8.661,9.998L8.533,9.993L8.405,9.985L8.279,9.974L8.153,9.96L8.029,9.942L7.905,9.922L7.782,9.898L7.661,9.872L7.541,9.843L7.421,9.81L7.303,9.775L7.186,9.737L7.071,9.697L6.957,9.653L6.844,9.607L6.732,9.558L6.622,9.507L6.514,9.453L6.407,9.397L6.301,9.338L6.197,9.276L6.095,9.212L5.995,9.146L5.896,9.078L5.799,9.007L5.703,8.934L5.61,8.858L5.518,8.781L5.428,8.701L5.34,8.619L5.255,8.536L5.171,8.45L5.089,8.362L5.009,8.272L4.932,8.18L4.857,8.087L4.783,7.992L4.713,7.894L4.644,7.796L4.578,7.695L4.514,7.593L4.453,7.489L4.394,7.383L4.337,7.276L4.283,7.168L4.232,7.058L4.183,6.946L4.137,6.833L4.093,6.719L4.053,6.604L4.015,6.487L3.98,6.369L3.948,6.25L3.918,6.129L3.892,6.008L3.868,5.885L3.848,5.761L3.83,5.637L3.816,5.511L3.805,5.385L3.797,5.257L3.792,5.129L3.79,5L3.792,4.871L3.797,4.743L3.805,4.615L3.816,4.489L3.83,4.363L3.848,4.239L3.868,4.115L3.892,3.992L3.918,3.871L3.948,3.75L3.98,3.631L4.015,3.513L4.053,3.396L4.093,3.281L4.137,3.167L4.183,3.054L4.232,2.942L4.283,2.832L4.337,2.724L4.394,2.617L4.453,2.511L4.514,2.407L4.578,2.305L4.644,2.204L4.713,2.106L4.783,2.008L4.857,1.913L4.932,1.82L5.009,1.728L5.089,1.638L5.171,1.55L5.255,1.464L5.34,1.381L5.428,1.299L5.518,1.219L5.61,1.142L5.703,1.066L5.799,0.993L5.896,0.922L5.995,0.854L6.095,0.788L6.197,0.724L6.301,0.662L6.407,0.603L6.514,0.547L6.622,0.493L6.732,0.442L6.844,0.393L6.957,0.347L7.071,0.303L7.186,0.263L7.303,0.225L7.421,0.19L7.541,0.157L7.661,0.128L7.782,0.102L7.905,0.078L8.029,0.058L8.153,0.04L8.279,0.026L8.405,0.015L8.533,0.007L8.661,0.002L8.79,0L8.919,0.002L9.047,0.007L9.175,0.015L9.301,0.026L9.427,0.04L9.552,0.058L9.675,0.078L9.798,0.102L9.919,0.128L10.04,0.157L10.159,0.19L10.277,0.225L10.394,0.263L10.509,0.303L10.623,0.347L10.736,0.393L10.848,0.442L10.958,0.493L11.066,0.547L11.173,0.603L11.279,0.662L11.383,0.724L11.485,0.788L11.586,0.854L11.685,0.922L11.782,0.993L11.877,1.066L11.971,1.142L12.062,1.219L12.152,1.299L12.24,1.381L12.326,1.464L12.409,1.55L12.491,1.638L12.571,1.728L12.648,1.82L12.724,1.913L12.797,2.008L12.868,2.106L12.936,2.204L13.002,2.305L13.066,2.407L13.128,2.511L13.187,2.617L13.243,2.724L13.297,2.832L13.348,2.942L13.397,3.054L13.443,3.167L13.487,3.281L13.527,3.396L13.565,3.513L13.6,3.631L13.633,3.75L13.662,3.871L13.689,3.992L13.712,4.115L13.732,4.239L13.75,4.363L13.764,4.489L13.776,4.615L13.784,4.743L13.788,4.871L13.79,5L13.788,5.129L13.784,5.257L13.776,5.385L13.764,5.511L13.75,5.637L13.732,5.761L13.712,5.885L13.689,6.008L13.662,6.129L13.633,6.25L13.6,6.369L13.565,6.487L13.527,6.604L13.487,6.719L13.443,6.833L13.397,6.946L13.348,7.058L13.297,7.168L13.243,7.276L13.187,7.383L13.128,7.489L13.066,7.593L13.002,7.695L12.936,7.796L12.868,7.894L12.797,7.992L12.724,8.087L12.648,8.18L12.571,8.272L12.491,8.362L12.409,8.45L12.326,8.536L12.24,8.619L12.152,8.701L12.062,8.781L11.971,8.858L11.877,8.934L11.782,9.007L11.685,9.078L11.586,9.146L11.485,9.212L11.383,9.276L11.279,9.338L11.173,9.397L11.066,9.453L10.958,9.507L10.848,9.558L10.736,9.607L10.623,9.653L10.509,9.697L10.394,9.737L10.277,9.775L10.159,9.81L10.04,9.843L9.919,9.872L9.798,9.898L9.675,9.922L9.552,9.942L9.427,9.96L9.301,9.974L9.175,9.985L9.047,9.993L8.919,9.998L8.79,10ZM8.79,7.555L8.857,7.555L8.924,7.552L8.989,7.548L9.054,7.542L9.119,7.535L9.182,7.526L9.245,7.515L9.308,7.503L9.369,7.49L9.431,7.475L9.491,7.459L9.551,7.441L9.61,7.422L9.669,7.401L9.727,7.379L9.784,7.356L9.841,7.331L9.897,7.305L9.952,7.277L10.006,7.248L10.06,7.218L10.113,7.187L10.166,7.154L10.217,7.12L10.268,7.085L10.318,7.049L10.367,7.011L10.415,6.973L10.462,6.933L10.508,6.892L10.553,6.85L10.597,6.807L10.64,6.763L10.682,6.718L10.723,6.672L10.763,6.624L10.802,6.576L10.839,6.528L10.875,6.478L10.91,6.427L10.944,6.376L10.977,6.323L11.008,6.27L11.038,6.216L11.067,6.162L11.095,6.107L11.121,6.051L11.146,5.994L11.169,5.937L11.191,5.879L11.212,5.82L11.231,5.761L11.249,5.701L11.265,5.64L11.28,5.579L11.294,5.518L11.305,5.455L11.316,5.392L11.325,5.329L11.332,5.264L11.338,5.199L11.342,5.134L11.345,5.067L11.345,5L11.345,4.933L11.342,4.866L11.338,4.801L11.332,4.736L11.325,4.671L11.316,4.608L11.305,4.545L11.294,4.482L11.28,4.421L11.265,4.36L11.249,4.299L11.231,4.239L11.212,4.18L11.191,4.121L11.169,4.063L11.146,4.006L11.121,3.949L11.095,3.893L11.067,3.838L11.038,3.784L11.008,3.73L10.977,3.677L10.944,3.624L10.91,3.573L10.875,3.522L10.839,3.472L10.802,3.424L10.763,3.376L10.723,3.328L10.682,3.282L10.64,3.237L10.597,3.193L10.553,3.15L10.508,3.108L10.462,3.067L10.415,3.027L10.367,2.989L10.318,2.951L10.268,2.915L10.217,2.88L10.166,2.846L10.113,2.813L10.06,2.782L10.006,2.752L9.952,2.723L9.897,2.695L9.841,2.669L9.784,2.644L9.727,2.621L9.669,2.599L9.61,2.578L9.551,2.559L9.491,2.541L9.431,2.525L9.369,2.51L9.308,2.497L9.245,2.485L9.182,2.474L9.119,2.465L9.054,2.458L8.989,2.452L8.924,2.448L8.857,2.445L8.79,2.445L8.723,2.445L8.657,2.448L8.591,2.452L8.526,2.458L8.462,2.465L8.398,2.474L8.335,2.485L8.272,2.497L8.211,2.51L8.15,2.525L8.089,2.541L8.029,2.559L7.97,2.578L7.911,2.599L7.853,2.621L7.796,2.644L7.74,2.669L7.684,2.695L7.628,2.723L7.574,2.752L7.52,2.782L7.467,2.813L7.415,2.846L7.363,2.88L7.312,2.915L7.263,2.951L7.214,2.989L7.166,3.027L7.119,3.067L7.072,3.108L7.027,3.15L6.983,3.193L6.94,3.237L6.898,3.282L6.857,3.328L6.817,3.376L6.779,3.424L6.741,3.472L6.705,3.522L6.67,3.573L6.636,3.624L6.603,3.677L6.572,3.73L6.542,3.784L6.513,3.838L6.485,3.893L6.459,3.949L6.435,4.006L6.411,4.063L6.389,4.121L6.368,4.18L6.349,4.239L6.331,4.299L6.315,4.36L6.3,4.421L6.287,4.482L6.275,4.545L6.264,4.608L6.255,4.671L6.248,4.736L6.242,4.801L6.238,4.866L6.236,4.933L6.235,5L6.236,5.067L6.238,5.134L6.242,5.199L6.248,5.264L6.255,5.329L6.264,5.392L6.275,5.455L6.287,5.518L6.3,5.579L6.315,5.64L6.331,5.701L6.349,5.761L6.368,5.82L6.389,5.879L6.411,5.937L6.435,5.994L6.459,6.051L6.485,6.107L6.513,6.162L6.542,6.216L6.572,6.27L6.603,6.323L6.636,6.376L6.67,6.427L6.705,6.478L6.741,6.528L6.779,6.576L6.817,6.624L6.857,6.672L6.898,6.718L6.94,6.763L6.983,6.807L7.027,6.85L7.072,6.892L7.119,6.933L7.166,6.973L7.214,7.011L7.263,7.049L7.312,7.085L7.363,7.12L7.415,7.154L7.467,7.187L7.52,7.218L7.574,7.248L7.628,7.277L7.684,7.305L7.74,7.331L7.796,7.356L7.853,7.379L7.911,7.401L7.97,7.422L8.029,7.441L8.089,7.459L8.15,7.475L8.211,7.49L8.272,7.503L8.335,7.515L8.398,7.526L8.462,7.535L8.526,7.542L8.591,7.548L8.657,7.552L8.723,7.555L8.79,7.555Z" style="fill:white;"/>
    </g>
    <g transform="matrix(1,0,0,1,-0.5,-0.5)">
        <circle cx="27" cy="4" r="1" style="fill:rgb(49,85,247);"/>
    </g>
</svg>
