<?xml version="1.0" standalone="no"?>
<!DOCTYPE svg PUBLIC "-//W3C//DTD SVG 1.1//EN" "http://www.w3.org/Graphics/SVG/1.1/DTD/svg11.dtd">
<svg width="100%" height="100%" viewBox="0 0 36 18" version="1.1" xmlns="http://www.w3.org/2000/svg" xmlns:xlink="http://www.w3.org/1999/xlink" xml:space="preserve" style="fill-rule:evenodd;clip-rule:evenodd;stroke-linecap:round;stroke-linejoin:round;stroke-miterlimit:1.41421;">
    <g>
        <g transform="matrix(0.818182,0,0,0.818182,0,-9.99201e-16)">
            <path d="M11,19L10.716,18.998L10.434,18.993L10.154,18.985L9.875,18.974L9.599,18.96L9.325,18.942L9.053,18.922L8.783,18.898L8.516,18.872L8.251,18.843L7.989,18.81L7.729,18.775L7.472,18.737L7.218,18.697L6.967,18.653L6.718,18.607L6.473,18.558L6.231,18.507L5.992,18.453L5.757,18.396L5.525,18.337L5.296,18.276L5.071,18.212L4.85,18.146L4.632,18.077L4.419,18.007L4.209,17.933L4.003,17.858L3.801,17.781L3.604,17.701L3.411,17.619L3.222,17.535L3.129,17.493L3.037,17.45L2.947,17.406L2.858,17.362L2.769,17.317L2.682,17.272L2.597,17.226L2.512,17.18L2.428,17.134L2.346,17.087L2.265,17.039L2.185,16.991L2.107,16.943L2.029,16.894L1.953,16.845L1.879,16.795L1.805,16.745L1.733,16.695L1.662,16.644L1.593,16.592L1.524,16.541L1.457,16.489L1.392,16.436L1.328,16.383L1.265,16.33L1.203,16.276L1.143,16.222L1.085,16.168L1.028,16.113L0.972,16.058L0.917,16.002L0.864,15.946L0.813,15.89L0.763,15.833L0.715,15.776L0.667,15.719L0.622,15.661L0.578,15.603L0.535,15.545L0.495,15.487L0.455,15.428L0.417,15.369L0.381,15.309L0.346,15.249L0.313,15.189L0.282,15.129L0.252,15.068L0.223,15.008L0.197,14.946L0.172,14.885L0.148,14.823L0.127,14.761L0.107,14.699L0.088,14.637L0.072,14.574L0.057,14.511L0.044,14.448L0.032,14.385L0.022,14.321L0.014,14.257L0.008,14.193L0.004,14.129L0.001,14.065L0,14L0.001,13.938L0.003,13.876L0.007,13.814L0.013,13.752L0.021,13.691L0.03,13.63L0.04,13.569L0.053,13.508L0.066,13.447L0.082,13.387L0.099,13.327L0.117,13.267L0.138,13.207L0.159,13.147L0.182,13.088L0.207,13.029L0.233,12.97L0.261,12.912L0.29,12.854L0.321,12.796L0.353,12.738L0.387,12.68L0.422,12.623L0.459,12.566L0.497,12.51L0.536,12.453L0.577,12.397L0.619,12.342L0.663,12.286L0.708,12.231L0.755,12.176L0.803,12.122L0.852,12.067L0.902,12.014L0.954,11.96L1.007,11.907L1.062,11.854L1.118,11.801L1.175,11.749L1.233,11.697L1.293,11.646L1.354,11.595L1.416,11.544L1.48,11.493L1.545,11.443L1.611,11.394L1.678,11.344L1.747,11.295L1.816,11.247L1.887,11.199L1.959,11.151L2.032,11.104L2.107,11.057L2.182,11.01L2.259,10.964L2.337,10.918L2.416,10.873L2.496,10.828L2.66,10.74L2.828,10.653L3,10.568L3,8L3.004,7.751L3.008,7.65L3.013,7.55L3.019,7.45L3.026,7.35L3.035,7.251L3.045,7.152L3.056,7.053L3.068,6.955L3.081,6.857L3.096,6.759L3.111,6.662L3.128,6.565L3.146,6.469L3.166,6.373L3.186,6.278L3.207,6.183L3.23,6.088L3.254,5.994L3.279,5.9L3.304,5.806L3.331,5.714L3.36,5.621L3.389,5.529L3.419,5.438L3.45,5.347L3.483,5.256L3.516,5.166L3.551,5.077L3.586,4.988L3.623,4.9L3.66,4.812L3.699,4.725L3.739,4.638L3.779,4.552L3.821,4.466L3.863,4.381L3.907,4.296L3.952,4.213L3.997,4.129L4.043,4.047L4.091,3.964L4.139,3.883L4.188,3.802L4.239,3.722L4.29,3.642L4.342,3.563L4.395,3.485L4.449,3.408L4.503,3.331L4.559,3.254L4.615,3.179L4.673,3.104L4.731,3.03L4.79,2.956L4.85,2.883L4.91,2.811L4.972,2.74L5.034,2.67L5.098,2.6L5.162,2.531L5.226,2.462L5.292,2.395L5.358,2.328L5.426,2.262L5.493,2.197L5.562,2.132L5.632,2.069L5.702,2.006L5.773,1.944L5.844,1.883L5.917,1.822L5.99,1.763L6.064,1.704L6.138,1.646L6.213,1.589L6.289,1.533L6.366,1.478L6.443,1.424L6.521,1.37L6.6,1.318L6.679,1.266L6.759,1.216L6.839,1.166L6.92,1.117L7.002,1.069L7.084,1.022L7.167,0.976L7.251,0.931L7.335,0.887L7.42,0.844L7.505,0.802L7.591,0.761L7.678,0.72L7.765,0.681L7.852,0.643L7.94,0.606L8.029,0.57L8.118,0.535L8.208,0.501L8.298,0.468L8.389,0.436L8.48,0.405L8.571,0.375L8.664,0.347L8.756,0.319L8.849,0.292L8.943,0.267L9.037,0.243L9.131,0.219L9.226,0.197L9.321,0.176L9.417,0.157L9.513,0.138L9.61,0.12L9.707,0.104L9.804,0.089L9.902,0.075L10,0.062L10.098,0.05L10.197,0.04L10.296,0.031L10.396,0.022L10.496,0.016L10.596,0.01L10.697,0.006L10.797,0.003L10.899,0.001L11,0L11.103,0.001L11.206,0.003L11.309,0.006L11.412,0.01L11.514,0.016L11.615,0.023L11.717,0.032L11.818,0.041L11.919,0.052L12.019,0.064L12.119,0.078L12.218,0.092L12.317,0.108L12.416,0.125L12.514,0.143L12.612,0.163L12.71,0.183L12.807,0.205L12.903,0.228L12.999,0.252L13.095,0.277L13.19,0.304L13.285,0.331L13.379,0.36L13.473,0.389L13.566,0.42L13.658,0.452L13.751,0.485L13.842,0.52L13.933,0.555L14.024,0.591L14.114,0.629L14.203,0.667L14.292,0.707L14.38,0.747L14.468,0.789L14.555,0.832L14.642,0.875L14.728,0.92L14.813,0.966L14.898,1.012L14.982,1.06L15.065,1.109L15.148,1.158L15.23,1.209L15.312,1.26L15.393,1.313L15.473,1.366L15.552,1.421L15.631,1.476L15.709,1.532L15.786,1.589L15.863,1.647L15.939,1.706L16.014,1.766L16.089,1.827L16.162,1.888L16.235,1.951L16.307,2.014L16.379,2.078L16.45,2.143L16.519,2.209L16.588,2.276L16.657,2.343L16.724,2.412L16.791,2.481L16.857,2.55L16.922,2.621L16.986,2.693L17.049,2.765L17.112,2.838L17.173,2.911L17.234,2.986L17.294,3.061L17.353,3.137L17.411,3.214L17.468,3.291L17.524,3.369L17.579,3.448L17.634,3.527L17.687,3.607L17.74,3.688L17.791,3.77L17.842,3.852L17.891,3.935L17.94,4.018L17.988,4.102L18.034,4.187L18.08,4.272L18.125,4.358L18.168,4.445L18.211,4.532L18.253,4.62L18.293,4.708L18.333,4.797L18.371,4.886L18.409,4.976L18.445,5.067L18.48,5.158L18.515,5.249L18.548,5.342L18.58,5.434L18.611,5.527L18.64,5.621L18.669,5.715L18.696,5.81L18.723,5.905L18.748,6.001L18.772,6.097L18.795,6.193L18.817,6.29L18.837,6.388L18.857,6.486L18.875,6.584L18.892,6.683L18.908,6.782L18.922,6.881L18.936,6.981L18.948,7.081L18.959,7.182L18.968,7.283L18.977,7.385L18.984,7.486L18.99,7.588L18.994,7.691L18.997,7.794L18.999,7.897L19,8L19.001,10.569L19.173,10.654L19.341,10.74L19.505,10.829L19.585,10.874L19.664,10.919L19.741,10.965L19.818,11.011L19.894,11.057L19.968,11.104L20.041,11.152L20.113,11.199L20.184,11.247L20.254,11.296L20.322,11.345L20.39,11.394L20.456,11.444L20.52,11.494L20.584,11.544L20.646,11.595L20.707,11.646L20.767,11.698L20.825,11.75L20.882,11.802L20.938,11.854L20.993,11.907L21.046,11.96L21.098,12.014L21.148,12.068L21.198,12.122L21.245,12.177L21.292,12.231L21.337,12.287L21.381,12.342L21.423,12.398L21.464,12.454L21.503,12.51L21.541,12.567L21.578,12.624L21.613,12.681L21.647,12.738L21.679,12.796L21.71,12.854L21.739,12.912L21.767,12.971L21.793,13.03L21.818,13.089L21.841,13.148L21.862,13.207L21.883,13.267L21.901,13.327L21.918,13.387L21.934,13.447L21.947,13.508L21.96,13.569L21.97,13.63L21.979,13.691L21.987,13.752L21.993,13.814L21.997,13.876L21.999,13.938L22,14L21.999,14.065L21.996,14.129L21.992,14.193L21.986,14.257L21.978,14.321L21.968,14.385L21.956,14.448L21.943,14.511L21.928,14.574L21.912,14.637L21.893,14.699L21.873,14.761L21.852,14.823L21.828,14.885L21.803,14.946L21.777,15.008L21.748,15.068L21.718,15.129L21.687,15.189L21.654,15.249L21.619,15.309L21.583,15.369L21.545,15.428L21.505,15.487L21.465,15.545L21.422,15.603L21.378,15.661L21.333,15.719L21.285,15.776L21.237,15.833L21.187,15.89L21.136,15.946L21.083,16.002L21.028,16.058L20.972,16.113L20.915,16.168L20.857,16.222L20.797,16.276L20.735,16.33L20.672,16.383L20.608,16.436L20.543,16.489L20.476,16.541L20.407,16.592L20.338,16.644L20.267,16.695L20.195,16.745L20.121,16.795L20.047,16.845L19.971,16.894L19.893,16.943L19.815,16.991L19.735,17.039L19.654,17.087L19.572,17.134L19.488,17.18L19.403,17.226L19.318,17.272L19.231,17.317L19.142,17.362L19.053,17.406L18.963,17.45L18.871,17.493L18.778,17.535L18.589,17.619L18.396,17.701L18.199,17.781L17.997,17.858L17.791,17.933L17.581,18.007L17.368,18.077L17.15,18.146L16.929,18.212L16.704,18.276L16.475,18.337L16.243,18.396L16.008,18.453L15.769,18.507L15.527,18.558L15.282,18.607L15.033,18.653L14.782,18.697L14.528,18.737L14.271,18.775L14.011,18.81L13.749,18.843L13.484,18.872L13.217,18.898L12.947,18.922L12.675,18.942L12.401,18.96L12.125,18.974L11.846,18.985L11.566,18.993L11.284,18.998L11,19ZM11,16.8L11.259,16.798L11.515,16.794L11.77,16.787L12.023,16.776L12.274,16.763L12.523,16.748L12.769,16.729L13.013,16.708L13.255,16.684L13.493,16.657L13.73,16.628L13.963,16.597L14.193,16.563L14.421,16.526L14.645,16.488L14.866,16.447L15.084,16.403L15.298,16.358L15.509,16.31L15.716,16.261L15.919,16.209L16.118,16.155L16.313,16.1L16.504,16.043L16.691,15.984L16.873,15.924L17.051,15.862L17.224,15.798L17.392,15.734L17.556,15.668L17.714,15.601L17.872,15.531L17.942,15.498L18.016,15.464L18.088,15.429L18.158,15.394L18.227,15.359L18.295,15.324L18.362,15.289L18.427,15.253L18.49,15.218L18.552,15.182L18.613,15.147L18.672,15.111L18.73,15.076L18.786,15.041L18.84,15.005L18.893,14.97L18.945,14.935L18.994,14.9L19.043,14.865L19.09,14.831L19.135,14.797L19.178,14.763L19.22,14.729L19.26,14.696L19.299,14.663L19.336,14.631L19.372,14.599L19.406,14.567L19.438,14.536L19.468,14.506L19.497,14.476L19.525,14.447L19.551,14.419L19.575,14.392L19.598,14.365L19.619,14.339L19.639,14.314L19.657,14.29L19.674,14.267L19.69,14.244L19.704,14.223L19.717,14.203L19.728,14.184L19.739,14.166L19.748,14.149L19.757,14.133L19.764,14.118L19.77,14.104L19.776,14.092L19.78,14.08L19.784,14.07L19.788,14.06L19.79,14.052L19.793,14.044L19.795,14.037L19.796,14.031L19.797,14.026L19.798,14.021L19.799,14.017L19.799,14.013L19.799,14.01L19.8,14.007L19.8,14.003L19.8,13.999L19.8,13.997L19.8,13.994L19.799,13.991L19.799,13.987L19.799,13.984L19.798,13.98L19.797,13.975L19.796,13.97L19.795,13.965L19.793,13.959L19.792,13.952L19.789,13.944L19.786,13.935L19.783,13.926L19.779,13.915L19.774,13.903L19.768,13.891L19.762,13.877L19.754,13.863L19.746,13.847L19.737,13.831L19.727,13.813L19.715,13.795L19.703,13.775L19.689,13.755L19.674,13.733L19.658,13.711L19.64,13.688L19.621,13.664L19.601,13.639L19.579,13.613L19.556,13.587L19.531,13.56L19.505,13.532L19.478,13.504L19.449,13.475L19.419,13.445L19.387,13.415L19.353,13.385L19.318,13.354L19.282,13.322L19.244,13.29L19.205,13.258L19.164,13.226L19.121,13.193L19.078,13.16L19.032,13.127L18.985,13.094L18.937,13.06L18.888,13.026L18.836,12.992L18.784,12.958L18.73,12.924L18.675,12.89L18.618,12.856L18.56,12.822L18.5,12.788L18.444,12.756L18.313,12.686L18.183,12.618L18.029,12.542L17.909,12.479L17.793,12.408L17.682,12.329L17.575,12.245L17.475,12.153L17.38,12.056L17.291,11.953L17.209,11.845L17.133,11.731L17.065,11.614L17.004,11.492L16.951,11.367L16.906,11.239L16.868,11.108L16.839,10.975L16.818,10.841L16.805,10.706L16.801,10.57L16.8,8.007L16.799,7.924L16.798,7.849L16.796,7.774L16.792,7.7L16.788,7.625L16.783,7.551L16.777,7.478L16.77,7.404L16.762,7.331L16.753,7.259L16.744,7.186L16.733,7.114L16.722,7.042L16.709,6.971L16.696,6.9L16.682,6.829L16.667,6.758L16.651,6.688L16.635,6.618L16.617,6.549L16.599,6.48L16.58,6.411L16.56,6.343L16.54,6.275L16.518,6.207L16.496,6.14L16.473,6.073L16.449,6.006L16.424,5.94L16.398,5.874L16.372,5.808L16.345,5.743L16.317,5.679L16.289,5.614L16.259,5.55L16.229,5.487L16.198,5.424L16.167,5.361L16.134,5.299L16.101,5.237L16.067,5.176L16.033,5.115L15.998,5.054L15.962,4.994L15.925,4.935L15.888,4.876L15.849,4.817L15.811,4.759L15.771,4.701L15.731,4.644L15.69,4.587L15.649,4.531L15.607,4.476L15.564,4.42L15.52,4.366L15.476,4.312L15.432,4.258L15.386,4.205L15.34,4.153L15.294,4.101L15.246,4.049L15.199,3.999L15.15,3.949L15.101,3.899L15.051,3.85L15.001,3.801L14.951,3.754L14.899,3.706L14.847,3.66L14.795,3.614L14.742,3.568L14.688,3.524L14.634,3.48L14.58,3.436L14.524,3.393L14.469,3.351L14.413,3.31L14.356,3.269L14.299,3.229L14.241,3.189L14.183,3.151L14.124,3.112L14.065,3.075L14.006,3.038L13.946,3.002L13.885,2.967L13.824,2.933L13.763,2.899L13.701,2.866L13.639,2.833L13.576,2.802L13.513,2.771L13.45,2.741L13.386,2.711L13.321,2.683L13.257,2.655L13.192,2.628L13.126,2.602L13.06,2.576L12.994,2.551L12.927,2.527L12.86,2.504L12.793,2.482L12.725,2.46L12.657,2.44L12.589,2.42L12.52,2.401L12.451,2.383L12.382,2.365L12.312,2.349L12.242,2.333L12.171,2.318L12.1,2.304L12.029,2.291L11.958,2.278L11.886,2.267L11.814,2.256L11.741,2.247L11.669,2.238L11.596,2.23L11.522,2.223L11.449,2.217L11.375,2.212L11.3,2.208L11.226,2.204L11.151,2.202L11.076,2.201L11,2.2L10.926,2.201L10.852,2.202L10.779,2.204L10.705,2.207L10.632,2.211L10.56,2.216L10.487,2.222L10.415,2.229L10.344,2.237L10.272,2.245L10.201,2.254L10.13,2.265L10.06,2.276L9.99,2.287L9.92,2.3L9.85,2.314L9.781,2.328L9.712,2.343L9.643,2.359L9.575,2.376L9.507,2.393L9.439,2.412L9.372,2.431L9.305,2.451L9.239,2.472L9.172,2.493L9.106,2.516L9.041,2.539L8.976,2.562L8.911,2.587L8.846,2.612L8.782,2.639L8.718,2.665L8.655,2.693L8.592,2.721L8.53,2.75L8.467,2.78L8.406,2.811L8.344,2.842L8.283,2.874L8.223,2.906L8.163,2.94L8.103,2.974L8.044,3.008L7.985,3.044L7.927,3.08L7.869,3.117L7.811,3.154L7.754,3.192L7.698,3.231L7.642,3.27L7.586,3.311L7.531,3.351L7.476,3.393L7.422,3.435L7.369,3.477L7.315,3.52L7.263,3.564L7.211,3.609L7.159,3.654L7.108,3.699L7.058,3.746L7.008,3.792L6.959,3.84L6.91,3.888L6.862,3.936L6.814,3.985L6.767,4.035L6.72,4.085L6.674,4.136L6.629,4.187L6.584,4.239L6.54,4.291L6.497,4.344L6.454,4.398L6.412,4.452L6.37,4.506L6.329,4.561L6.289,4.616L6.249,4.672L6.21,4.728L6.171,4.785L6.134,4.842L6.097,4.9L6.06,4.958L6.025,5.017L5.99,5.076L5.955,5.135L5.922,5.195L5.889,5.256L5.856,5.316L5.825,5.377L5.794,5.439L5.764,5.501L5.734,5.563L5.706,5.626L5.678,5.689L5.651,5.753L5.624,5.817L5.599,5.881L5.574,5.946L5.549,6.011L5.526,6.076L5.503,6.142L5.482,6.208L5.46,6.274L5.44,6.341L5.421,6.408L5.402,6.476L5.384,6.544L5.367,6.612L5.35,6.68L5.335,6.749L5.32,6.818L5.306,6.887L5.293,6.957L5.281,7.027L5.27,7.098L5.259,7.168L5.249,7.239L5.24,7.311L5.233,7.382L5.225,7.454L5.219,7.526L5.214,7.599L5.209,7.671L5.206,7.745L5.203,7.809L5.2,8.018L5.2,10.568L5.196,10.704L5.183,10.839L5.162,10.974L5.133,11.107L5.096,11.237L5.05,11.365L4.997,11.491L4.936,11.612L4.868,11.73L4.793,11.843L4.711,11.951L4.622,12.055L4.527,12.152L4.426,12.243L4.32,12.328L4.209,12.406L4.093,12.477L3.973,12.541L3.819,12.617L3.688,12.685L3.557,12.756L3.501,12.787L3.441,12.821L3.383,12.855L3.326,12.889L3.271,12.924L3.217,12.958L3.164,12.992L3.113,13.026L3.063,13.059L3.015,13.093L2.968,13.126L2.923,13.16L2.879,13.193L2.836,13.226L2.795,13.258L2.756,13.29L2.718,13.322L2.682,13.353L2.647,13.384L2.613,13.415L2.581,13.445L2.551,13.474L2.522,13.503L2.495,13.532L2.469,13.559L2.444,13.586L2.421,13.613L2.399,13.638L2.379,13.663L2.36,13.687L2.342,13.71L2.326,13.733L2.311,13.754L2.297,13.775L2.285,13.794L2.273,13.813L2.263,13.83L2.254,13.847L2.246,13.862L2.238,13.877L2.232,13.89L2.226,13.903L2.222,13.914L2.217,13.925L2.214,13.935L2.211,13.943L2.209,13.951L2.207,13.958L2.205,13.964L2.204,13.97L2.203,13.975L2.202,13.979L2.201,13.983L2.201,13.987L2.201,13.99L2.2,13.994L2.2,13.997L2.2,13.999L2.201,14.01L2.202,14.021L2.204,14.031L2.207,14.044L2.212,14.06L2.216,14.07L2.22,14.08L2.224,14.092L2.23,14.104L2.236,14.118L2.243,14.133L2.252,14.149L2.261,14.166L2.272,14.184L2.283,14.203L2.296,14.223L2.31,14.244L2.326,14.267L2.343,14.29L2.361,14.314L2.381,14.339L2.402,14.365L2.425,14.392L2.449,14.419L2.475,14.447L2.503,14.476L2.532,14.506L2.562,14.536L2.594,14.567L2.628,14.599L2.664,14.631L2.701,14.663L2.74,14.696L2.78,14.729L2.822,14.763L2.865,14.797L2.91,14.831L2.957,14.865L3.005,14.9L3.055,14.935L3.107,14.97L3.16,15.005L3.214,15.041L3.27,15.076L3.328,15.111L3.387,15.147L3.448,15.182L3.51,15.218L3.573,15.253L3.638,15.289L3.705,15.324L3.773,15.359L3.842,15.394L3.912,15.429L3.984,15.464L4.058,15.498L4.128,15.531L4.286,15.601L4.444,15.668L4.608,15.734L4.776,15.798L4.949,15.862L5.127,15.924L5.309,15.984L5.496,16.043L5.687,16.1L5.882,16.155L6.081,16.209L6.284,16.261L6.491,16.31L6.702,16.358L6.916,16.403L7.134,16.447L7.355,16.488L7.579,16.526L7.807,16.563L8.037,16.597L8.27,16.628L8.507,16.657L8.745,16.684L8.987,16.708L9.231,16.729L9.477,16.748L9.726,16.763L9.977,16.776L10.23,16.787L10.485,16.794L10.741,16.798L11,16.8Z" style="fill:white;"/>
        </g>
        <g transform="matrix(0.818182,0,0,0.818182,0,-9.99201e-16)">
            <path d="M14.611,19.724C13.967,21.07 12.592,22 11,22C9.408,22 8.033,21.07 7.389,19.724C8.521,19.903 9.736,20 11,20C12.215,20 13.384,19.91 14.477,19.745L14.611,19.724Z" style="fill:white;"/>
        </g>
    </g>
    <g transform="matrix(1,0,0,1,18,0)">
        <g transform="matrix(0.818182,0,0,0.818182,0,-9.99201e-16)">
            <path d="M11,0C15.418,0 19,3.582 19,8L19.001,10.569C20.86,11.464 22,12.672 22,14C22,16.761 17.075,19 11,19C4.925,19 0,16.761 0,14C0,12.671 1.14,11.464 3,10.568L3,8L3.004,7.751C3.135,3.448 6.665,0 11,0Z" style="fill:white;fill-opacity:0.301961;fill-rule:nonzero;"/>
            <path d="M11,19L10.716,18.998L10.434,18.993L10.154,18.985L9.875,18.974L9.599,18.96L9.325,18.942L9.053,18.922L8.783,18.898L8.516,18.872L8.251,18.843L7.989,18.81L7.729,18.775L7.472,18.737L7.218,18.697L6.967,18.653L6.718,18.607L6.473,18.558L6.231,18.507L5.992,18.453L5.757,18.396L5.525,18.337L5.296,18.276L5.071,18.212L4.85,18.146L4.632,18.077L4.419,18.007L4.209,17.933L4.003,17.858L3.801,17.781L3.604,17.701L3.411,17.619L3.222,17.535L3.129,17.493L3.037,17.45L2.947,17.406L2.858,17.362L2.769,17.317L2.682,17.272L2.597,17.226L2.512,17.18L2.428,17.134L2.346,17.087L2.265,17.039L2.185,16.991L2.107,16.943L2.029,16.894L1.953,16.845L1.879,16.795L1.805,16.745L1.733,16.695L1.662,16.644L1.593,16.592L1.524,16.541L1.457,16.489L1.392,16.436L1.328,16.383L1.265,16.33L1.203,16.276L1.143,16.222L1.085,16.168L1.028,16.113L0.972,16.058L0.917,16.002L0.864,15.946L0.813,15.89L0.763,15.833L0.715,15.776L0.667,15.719L0.622,15.661L0.578,15.603L0.535,15.545L0.495,15.487L0.455,15.428L0.417,15.369L0.381,15.309L0.346,15.249L0.313,15.189L0.282,15.129L0.252,15.068L0.223,15.008L0.197,14.946L0.172,14.885L0.148,14.823L0.127,14.761L0.107,14.699L0.088,14.637L0.072,14.574L0.057,14.511L0.044,14.448L0.032,14.385L0.022,14.321L0.014,14.257L0.008,14.193L0.004,14.129L0.001,14.065L0,14L0.001,13.938L0.003,13.876L0.007,13.814L0.013,13.752L0.021,13.691L0.03,13.63L0.04,13.569L0.053,13.508L0.066,13.447L0.082,13.387L0.099,13.327L0.117,13.267L0.138,13.207L0.159,13.147L0.182,13.088L0.207,13.029L0.233,12.97L0.261,12.912L0.29,12.854L0.321,12.796L0.353,12.738L0.387,12.68L0.422,12.623L0.459,12.566L0.497,12.51L0.536,12.453L0.577,12.397L0.619,12.342L0.663,12.286L0.708,12.231L0.755,12.176L0.803,12.122L0.852,12.067L0.902,12.014L0.954,11.96L1.007,11.907L1.062,11.854L1.118,11.801L1.175,11.749L1.233,11.697L1.293,11.646L1.354,11.595L1.416,11.544L1.48,11.493L1.545,11.443L1.611,11.394L1.678,11.344L1.747,11.295L1.816,11.247L1.887,11.199L1.959,11.151L2.032,11.104L2.107,11.057L2.182,11.01L2.259,10.964L2.337,10.918L2.416,10.873L2.496,10.828L2.66,10.74L2.828,10.653L3,10.568L3,8L3.004,7.751L3.008,7.65L3.013,7.55L3.019,7.45L3.026,7.35L3.035,7.251L3.045,7.152L3.056,7.053L3.068,6.955L3.081,6.857L3.096,6.759L3.111,6.662L3.128,6.565L3.146,6.469L3.166,6.373L3.186,6.278L3.207,6.183L3.23,6.088L3.254,5.994L3.279,5.9L3.304,5.806L3.331,5.714L3.36,5.621L3.389,5.529L3.419,5.438L3.45,5.347L3.483,5.256L3.516,5.166L3.551,5.077L3.586,4.988L3.623,4.9L3.66,4.812L3.699,4.725L3.739,4.638L3.779,4.552L3.821,4.466L3.863,4.381L3.907,4.296L3.952,4.213L3.997,4.129L4.043,4.047L4.091,3.964L4.139,3.883L4.188,3.802L4.239,3.722L4.29,3.642L4.342,3.563L4.395,3.485L4.449,3.408L4.503,3.331L4.559,3.254L4.615,3.179L4.673,3.104L4.731,3.03L4.79,2.956L4.85,2.883L4.91,2.811L4.972,2.74L5.034,2.67L5.098,2.6L5.162,2.531L5.226,2.462L5.292,2.395L5.358,2.328L5.426,2.262L5.493,2.197L5.562,2.132L5.632,2.069L5.702,2.006L5.773,1.944L5.844,1.883L5.917,1.822L5.99,1.763L6.064,1.704L6.138,1.646L6.213,1.589L6.289,1.533L6.366,1.478L6.443,1.424L6.521,1.37L6.6,1.318L6.679,1.266L6.759,1.216L6.839,1.166L6.92,1.117L7.002,1.069L7.084,1.022L7.167,0.976L7.251,0.931L7.335,0.887L7.42,0.844L7.505,0.802L7.591,0.761L7.678,0.72L7.765,0.681L7.852,0.643L7.94,0.606L8.029,0.57L8.118,0.535L8.208,0.501L8.298,0.468L8.389,0.436L8.48,0.405L8.571,0.375L8.664,0.347L8.756,0.319L8.849,0.292L8.943,0.267L9.037,0.243L9.131,0.219L9.226,0.197L9.321,0.176L9.417,0.157L9.513,0.138L9.61,0.12L9.707,0.104L9.804,0.089L9.902,0.075L10,0.062L10.098,0.05L10.197,0.04L10.296,0.031L10.396,0.022L10.496,0.016L10.596,0.01L10.697,0.006L10.797,0.003L10.899,0.001L11,0L11.103,0.001L11.206,0.003L11.309,0.006L11.412,0.01L11.514,0.016L11.615,0.023L11.717,0.032L11.818,0.041L11.919,0.052L12.019,0.064L12.119,0.078L12.218,0.092L12.317,0.108L12.416,0.125L12.514,0.143L12.612,0.163L12.71,0.183L12.807,0.205L12.903,0.228L12.999,0.252L13.095,0.277L13.19,0.304L13.285,0.331L13.379,0.36L13.473,0.389L13.566,0.42L13.658,0.452L13.751,0.485L13.842,0.52L13.933,0.555L14.024,0.591L14.114,0.629L14.203,0.667L14.292,0.707L14.38,0.747L14.468,0.789L14.555,0.832L14.642,0.875L14.728,0.92L14.813,0.966L14.898,1.012L14.982,1.06L15.065,1.109L15.148,1.158L15.23,1.209L15.312,1.26L15.393,1.313L15.473,1.366L15.552,1.421L15.631,1.476L15.709,1.532L15.786,1.589L15.863,1.647L15.939,1.706L16.014,1.766L16.089,1.827L16.162,1.888L16.235,1.951L16.307,2.014L16.379,2.078L16.45,2.143L16.519,2.209L16.588,2.276L16.657,2.343L16.724,2.412L16.791,2.481L16.857,2.55L16.922,2.621L16.986,2.693L17.049,2.765L17.112,2.838L17.173,2.911L17.234,2.986L17.294,3.061L17.353,3.137L17.411,3.214L17.468,3.291L17.524,3.369L17.579,3.448L17.634,3.527L17.687,3.607L17.74,3.688L17.791,3.77L17.842,3.852L17.891,3.935L17.94,4.018L17.988,4.102L18.034,4.187L18.08,4.272L18.125,4.358L18.168,4.445L18.211,4.532L18.253,4.62L18.293,4.708L18.333,4.797L18.371,4.886L18.409,4.976L18.445,5.067L18.48,5.158L18.515,5.249L18.548,5.342L18.58,5.434L18.611,5.527L18.64,5.621L18.669,5.715L18.696,5.81L18.723,5.905L18.748,6.001L18.772,6.097L18.795,6.193L18.817,6.29L18.837,6.388L18.857,6.486L18.875,6.584L18.892,6.683L18.908,6.782L18.922,6.881L18.936,6.981L18.948,7.081L18.959,7.182L18.968,7.283L18.977,7.385L18.984,7.486L18.99,7.588L18.994,7.691L18.997,7.794L18.999,7.897L19,8L19.001,10.569L19.173,10.654L19.341,10.74L19.505,10.829L19.585,10.874L19.664,10.919L19.741,10.965L19.818,11.011L19.894,11.057L19.968,11.104L20.041,11.152L20.113,11.199L20.184,11.247L20.254,11.296L20.322,11.345L20.39,11.394L20.456,11.444L20.52,11.494L20.584,11.544L20.646,11.595L20.707,11.646L20.767,11.698L20.825,11.75L20.882,11.802L20.938,11.854L20.993,11.907L21.046,11.96L21.098,12.014L21.148,12.068L21.198,12.122L21.245,12.177L21.292,12.231L21.337,12.287L21.381,12.342L21.423,12.398L21.464,12.454L21.503,12.51L21.541,12.567L21.578,12.624L21.613,12.681L21.647,12.738L21.679,12.796L21.71,12.854L21.739,12.912L21.767,12.971L21.793,13.03L21.818,13.089L21.841,13.148L21.862,13.207L21.883,13.267L21.901,13.327L21.918,13.387L21.934,13.447L21.947,13.508L21.96,13.569L21.97,13.63L21.979,13.691L21.987,13.752L21.993,13.814L21.997,13.876L21.999,13.938L22,14L21.999,14.065L21.996,14.129L21.992,14.193L21.986,14.257L21.978,14.321L21.968,14.385L21.956,14.448L21.943,14.511L21.928,14.574L21.912,14.637L21.893,14.699L21.873,14.761L21.852,14.823L21.828,14.885L21.803,14.946L21.777,15.008L21.748,15.068L21.718,15.129L21.687,15.189L21.654,15.249L21.619,15.309L21.583,15.369L21.545,15.428L21.505,15.487L21.465,15.545L21.422,15.603L21.378,15.661L21.333,15.719L21.285,15.776L21.237,15.833L21.187,15.89L21.136,15.946L21.083,16.002L21.028,16.058L20.972,16.113L20.915,16.168L20.857,16.222L20.797,16.276L20.735,16.33L20.672,16.383L20.608,16.436L20.543,16.489L20.476,16.541L20.407,16.592L20.338,16.644L20.267,16.695L20.195,16.745L20.121,16.795L20.047,16.845L19.971,16.894L19.893,16.943L19.815,16.991L19.735,17.039L19.654,17.087L19.572,17.134L19.488,17.18L19.403,17.226L19.318,17.272L19.231,17.317L19.142,17.362L19.053,17.406L18.963,17.45L18.871,17.493L18.778,17.535L18.589,17.619L18.396,17.701L18.199,17.781L17.997,17.858L17.791,17.933L17.581,18.007L17.368,18.077L17.15,18.146L16.929,18.212L16.704,18.276L16.475,18.337L16.243,18.396L16.008,18.453L15.769,18.507L15.527,18.558L15.282,18.607L15.033,18.653L14.782,18.697L14.528,18.737L14.271,18.775L14.011,18.81L13.749,18.843L13.484,18.872L13.217,18.898L12.947,18.922L12.675,18.942L12.401,18.96L12.125,18.974L11.846,18.985L11.566,18.993L11.284,18.998L11,19ZM11,16.8L11.259,16.798L11.515,16.794L11.77,16.787L12.023,16.776L12.274,16.763L12.523,16.748L12.769,16.729L13.013,16.708L13.255,16.684L13.493,16.657L13.73,16.628L13.963,16.597L14.193,16.563L14.421,16.526L14.645,16.488L14.866,16.447L15.084,16.403L15.298,16.358L15.509,16.31L15.716,16.261L15.919,16.209L16.118,16.155L16.313,16.1L16.504,16.043L16.691,15.984L16.873,15.924L17.051,15.862L17.224,15.798L17.392,15.734L17.556,15.668L17.714,15.601L17.872,15.531L17.942,15.498L18.016,15.464L18.088,15.429L18.158,15.394L18.227,15.359L18.295,15.324L18.362,15.289L18.427,15.253L18.49,15.218L18.552,15.182L18.613,15.147L18.672,15.111L18.73,15.076L18.786,15.041L18.84,15.005L18.893,14.97L18.945,14.935L18.995,14.9L19.043,14.865L19.09,14.831L19.135,14.797L19.178,14.763L19.22,14.729L19.26,14.696L19.299,14.663L19.336,14.631L19.372,14.599L19.406,14.567L19.438,14.536L19.468,14.506L19.497,14.476L19.525,14.447L19.551,14.419L19.575,14.392L19.598,14.365L19.619,14.339L19.639,14.314L19.657,14.29L19.674,14.266L19.69,14.244L19.704,14.223L19.717,14.203L19.728,14.184L19.739,14.166L19.748,14.149L19.757,14.133L19.764,14.118L19.77,14.104L19.776,14.092L19.78,14.08L19.784,14.07L19.788,14.06L19.79,14.052L19.793,14.044L19.795,14.037L19.796,14.031L19.797,14.026L19.798,14.021L19.799,14.017L19.799,14.013L19.799,14.01L19.8,14.007L19.8,14.003L19.8,13.999L19.8,13.997L19.8,13.994L19.799,13.991L19.799,13.987L19.799,13.984L19.798,13.98L19.797,13.975L19.796,13.97L19.795,13.965L19.793,13.959L19.792,13.952L19.789,13.944L19.786,13.935L19.783,13.925L19.779,13.915L19.774,13.903L19.768,13.891L19.762,13.877L19.754,13.863L19.746,13.847L19.737,13.831L19.727,13.813L19.715,13.795L19.703,13.775L19.689,13.755L19.674,13.733L19.658,13.711L19.64,13.688L19.621,13.664L19.601,13.639L19.579,13.613L19.556,13.587L19.531,13.56L19.505,13.532L19.478,13.504L19.449,13.475L19.419,13.445L19.387,13.415L19.353,13.385L19.318,13.354L19.282,13.322L19.244,13.29L19.205,13.258L19.164,13.226L19.121,13.193L19.078,13.16L19.032,13.127L18.985,13.094L18.937,13.06L18.888,13.026L18.836,12.992L18.784,12.958L18.73,12.924L18.675,12.89L18.618,12.856L18.56,12.822L18.5,12.788L18.444,12.756L18.313,12.686L18.183,12.618L18.029,12.543L17.909,12.479L17.793,12.408L17.682,12.329L17.575,12.245L17.475,12.153L17.38,12.056L17.291,11.953L17.209,11.845L17.133,11.731L17.065,11.614L17.004,11.492L16.951,11.367L16.906,11.239L16.868,11.108L16.839,10.975L16.818,10.841L16.805,10.706L16.801,10.57L16.8,8.007L16.799,7.924L16.798,7.849L16.796,7.774L16.792,7.7L16.788,7.625L16.783,7.551L16.777,7.478L16.77,7.404L16.762,7.331L16.753,7.259L16.744,7.186L16.733,7.114L16.722,7.042L16.709,6.971L16.696,6.9L16.682,6.829L16.667,6.758L16.651,6.688L16.635,6.618L16.617,6.549L16.599,6.48L16.58,6.411L16.56,6.343L16.54,6.275L16.518,6.207L16.496,6.14L16.473,6.073L16.449,6.006L16.424,5.94L16.398,5.874L16.372,5.808L16.345,5.743L16.317,5.679L16.289,5.614L16.259,5.55L16.229,5.487L16.198,5.424L16.167,5.361L16.134,5.299L16.101,5.237L16.067,5.176L16.033,5.115L15.998,5.054L15.962,4.994L15.925,4.935L15.888,4.876L15.849,4.817L15.811,4.759L15.771,4.701L15.731,4.644L15.69,4.587L15.649,4.531L15.607,4.476L15.564,4.42L15.52,4.366L15.476,4.312L15.432,4.258L15.386,4.205L15.34,4.153L15.294,4.101L15.246,4.049L15.199,3.999L15.15,3.949L15.101,3.899L15.051,3.85L15.001,3.801L14.95,3.754L14.899,3.706L14.847,3.66L14.795,3.614L14.742,3.568L14.688,3.524L14.634,3.48L14.58,3.436L14.524,3.393L14.469,3.351L14.413,3.31L14.356,3.269L14.299,3.229L14.241,3.189L14.183,3.151L14.124,3.112L14.065,3.075L14.006,3.038L13.946,3.002L13.885,2.967L13.824,2.933L13.763,2.899L13.701,2.866L13.639,2.833L13.576,2.802L13.513,2.771L13.45,2.741L13.386,2.711L13.321,2.683L13.257,2.655L13.192,2.628L13.126,2.602L13.06,2.576L12.994,2.551L12.927,2.527L12.86,2.504L12.793,2.482L12.725,2.46L12.657,2.44L12.589,2.42L12.52,2.401L12.451,2.383L12.382,2.365L12.312,2.349L12.242,2.333L12.171,2.318L12.1,2.304L12.029,2.291L11.958,2.278L11.886,2.267L11.814,2.256L11.741,2.247L11.669,2.238L11.596,2.23L11.522,2.223L11.449,2.217L11.375,2.212L11.3,2.208L11.226,2.204L11.151,2.202L11.076,2.201L11,2.2L10.926,2.201L10.852,2.202L10.779,2.204L10.705,2.207L10.632,2.211L10.56,2.216L10.487,2.222L10.415,2.229L10.344,2.237L10.272,2.245L10.201,2.254L10.13,2.265L10.06,2.276L9.99,2.287L9.92,2.3L9.85,2.314L9.781,2.328L9.712,2.343L9.643,2.359L9.575,2.376L9.507,2.393L9.439,2.412L9.372,2.431L9.305,2.451L9.239,2.472L9.172,2.493L9.106,2.516L9.041,2.539L8.976,2.562L8.911,2.587L8.846,2.612L8.782,2.639L8.718,2.665L8.655,2.693L8.592,2.721L8.53,2.75L8.467,2.78L8.406,2.811L8.344,2.842L8.283,2.874L8.223,2.906L8.163,2.94L8.103,2.974L8.044,3.008L7.985,3.044L7.927,3.08L7.869,3.117L7.811,3.154L7.754,3.192L7.698,3.231L7.642,3.27L7.586,3.311L7.531,3.351L7.476,3.393L7.422,3.435L7.369,3.477L7.316,3.52L7.263,3.564L7.211,3.609L7.159,3.654L7.108,3.699L7.058,3.746L7.008,3.792L6.959,3.84L6.91,3.888L6.862,3.936L6.814,3.985L6.767,4.035L6.72,4.085L6.674,4.136L6.629,4.187L6.584,4.239L6.54,4.291L6.497,4.344L6.454,4.398L6.412,4.452L6.37,4.506L6.329,4.561L6.289,4.616L6.249,4.672L6.21,4.728L6.172,4.785L6.134,4.842L6.097,4.9L6.06,4.958L6.025,5.017L5.99,5.076L5.955,5.135L5.922,5.195L5.889,5.256L5.856,5.316L5.825,5.377L5.794,5.439L5.764,5.501L5.734,5.563L5.706,5.626L5.678,5.689L5.651,5.753L5.624,5.817L5.599,5.881L5.574,5.946L5.549,6.011L5.526,6.076L5.503,6.142L5.482,6.208L5.46,6.274L5.44,6.341L5.421,6.408L5.402,6.476L5.384,6.544L5.367,6.612L5.35,6.68L5.335,6.749L5.32,6.818L5.306,6.887L5.293,6.957L5.281,7.027L5.27,7.098L5.259,7.168L5.249,7.239L5.24,7.311L5.233,7.382L5.225,7.454L5.219,7.526L5.214,7.599L5.209,7.671L5.206,7.745L5.203,7.809L5.2,8.018L5.2,10.568L5.196,10.704L5.183,10.839L5.162,10.974L5.133,11.107L5.096,11.237L5.05,11.365L4.997,11.491L4.936,11.612L4.868,11.73L4.793,11.843L4.711,11.951L4.622,12.054L4.527,12.152L4.426,12.243L4.32,12.328L4.209,12.406L4.093,12.477L3.973,12.541L3.819,12.617L3.688,12.685L3.557,12.756L3.501,12.787L3.441,12.821L3.383,12.855L3.326,12.889L3.271,12.924L3.217,12.958L3.164,12.992L3.113,13.026L3.063,13.059L3.015,13.093L2.968,13.126L2.923,13.16L2.879,13.193L2.836,13.226L2.795,13.258L2.756,13.29L2.718,13.322L2.682,13.353L2.647,13.384L2.613,13.415L2.581,13.445L2.551,13.474L2.522,13.503L2.495,13.532L2.469,13.559L2.444,13.586L2.421,13.613L2.399,13.638L2.379,13.663L2.36,13.687L2.342,13.71L2.326,13.733L2.311,13.754L2.297,13.775L2.285,13.794L2.273,13.813L2.263,13.83L2.254,13.847L2.246,13.862L2.238,13.877L2.232,13.89L2.226,13.903L2.222,13.914L2.217,13.925L2.214,13.935L2.211,13.943L2.209,13.951L2.207,13.958L2.205,13.964L2.204,13.97L2.203,13.975L2.202,13.979L2.201,13.983L2.201,13.987L2.201,13.99L2.2,13.994L2.2,13.997L2.2,13.999L2.201,14.01L2.202,14.021L2.204,14.031L2.207,14.044L2.212,14.06L2.216,14.07L2.22,14.08L2.224,14.092L2.23,14.104L2.236,14.118L2.243,14.133L2.252,14.149L2.261,14.166L2.272,14.184L2.283,14.203L2.296,14.223L2.31,14.244L2.326,14.267L2.343,14.29L2.361,14.314L2.381,14.339L2.402,14.365L2.425,14.392L2.449,14.419L2.475,14.447L2.503,14.476L2.532,14.506L2.562,14.536L2.594,14.567L2.628,14.599L2.664,14.631L2.701,14.663L2.74,14.696L2.78,14.729L2.822,14.763L2.865,14.797L2.91,14.831L2.957,14.865L3.005,14.9L3.055,14.935L3.107,14.97L3.16,15.005L3.214,15.041L3.27,15.076L3.328,15.111L3.387,15.147L3.448,15.182L3.51,15.218L3.573,15.253L3.638,15.289L3.705,15.324L3.773,15.359L3.842,15.394L3.912,15.429L3.984,15.464L4.058,15.498L4.128,15.531L4.286,15.601L4.444,15.668L4.608,15.734L4.776,15.798L4.949,15.862L5.127,15.924L5.309,15.984L5.496,16.043L5.687,16.1L5.882,16.155L6.081,16.209L6.284,16.261L6.491,16.31L6.702,16.358L6.916,16.403L7.134,16.447L7.355,16.488L7.579,16.526L7.807,16.563L8.037,16.597L8.27,16.628L8.507,16.657L8.745,16.684L8.987,16.708L9.231,16.729L9.477,16.748L9.726,16.763L9.977,16.776L10.23,16.787L10.485,16.794L10.741,16.798L11,16.8Z" style="fill:white;"/>
        </g>
        <g transform="matrix(0.818182,0,0,0.818182,0,-9.99201e-16)">
            <path d="M14.611,19.724C13.967,21.07 12.592,22 11,22C9.408,22 8.033,21.07 7.389,19.724C8.521,19.903 9.736,20 11,20C12.215,20 13.384,19.91 14.477,19.745L14.611,19.724Z" style="fill:white;"/>
        </g>
    </g>
    <g transform="matrix(1.25,0,0,1.25,-5.5,-1)">
        <path d="M24,6C24,4.896 24.896,4 26,4" style="fill:none;stroke-width:1.44px;stroke:white;"/>
    </g>
</svg>
