<?xml version="1.0" encoding="UTF-8"?>
<svg width="18px" height="18px" viewBox="0 0 18 18" version="1.1" xmlns="http://www.w3.org/2000/svg" xmlns:xlink="http://www.w3.org/1999/xlink">
    <title>phone</title>
    <g id="phone" stroke="none" stroke-width="1" fill="none" fill-rule="evenodd">
        <path d="M12,0 C13.6568542,-3.04359188e-16 15,1.34314575 15,3 L15,15 C15,16.6568542 13.6568542,18 12,18 L6,18 C4.34314575,18 3,16.6568542 3,15 L3,3 C3,1.34314575 4.34314575,-5.83819232e-16 6,0 L12,0 Z M11.5,16 L6.5,16 C6.22385763,16 6,16.2238576 6,16.5 C6,16.7761424 6.22385763,17 6.5,17 L6.5,17 L11.5,17 C11.7761424,17 12,16.7761424 12,16.5 C12,16.2238576 11.7761424,16 11.5,16 L11.5,16 Z M11,1 L7,1 C6.44771525,1 6,1.44771525 6,2 C6,2.55228475 6.44771525,3 7,3 L7,3 L11,3 C11.5522847,3 12,2.55228475 12,2 C12,1.44771525 11.5522847,1 11,1 L11,1 Z" id="Combined-Shape" fill="#B3B8CC"></path>
    </g>
</svg>