<?xml version="1.0" encoding="UTF-8" standalone="no"?>
<!DOCTYPE svg PUBLIC "-//W3C//DTD SVG 1.1//EN" "http://www.w3.org/Graphics/SVG/1.1/DTD/svg11.dtd">
<svg width="100%" height="100%" viewBox="0 0 18 18" version="1.1" xmlns="http://www.w3.org/2000/svg" xmlns:xlink="http://www.w3.org/1999/xlink" xml:space="preserve" xmlns:serif="http://www.serif.com/" style="fill-rule:evenodd;clip-rule:evenodd;stroke-linecap:round;stroke-linejoin:round;stroke-miterlimit:1.41421;">
    <g transform="matrix(1,0,0,1,0.5,0.5)">
        <path d="M9,4L9,9L5,9" style="fill:none;stroke:white;stroke-width:1.67px;"/>
    </g>
    <path d="M9,18L8.884,17.999L8.768,17.997L8.652,17.993L8.537,17.988L8.422,17.982L8.308,17.974L8.194,17.964L8.08,17.953L7.967,17.941L7.854,17.928L7.742,17.913L7.63,17.896L7.519,17.878L7.408,17.859L7.297,17.839L7.187,17.817L7.078,17.794L6.86,17.744L6.644,17.688L6.537,17.658L6.431,17.627L6.325,17.595L6.22,17.562L6.115,17.527L6.01,17.491L5.907,17.454L5.804,17.415L5.701,17.375L5.599,17.334L5.498,17.292L5.398,17.249L5.198,17.159L5.1,17.112L5.002,17.064L4.904,17.015L4.712,16.913L4.616,16.861L4.522,16.807L4.428,16.752L4.335,16.696L4.242,16.639L4.151,16.581L4.06,16.522L3.969,16.462L3.88,16.401L3.791,16.339L3.617,16.211L3.53,16.146L3.36,16.012L3.277,15.944L3.194,15.874L3.112,15.804L3.03,15.733L2.95,15.661L2.87,15.588L2.792,15.514L2.714,15.439L2.637,15.363L2.561,15.286L2.486,15.208L2.412,15.13L2.339,15.05L2.267,14.97L2.196,14.888L2.126,14.806L2.056,14.723L1.988,14.64L1.854,14.47L1.789,14.383L1.661,14.209L1.599,14.12L1.538,14.031L1.478,13.94L1.419,13.849L1.361,13.758L1.304,13.665L1.248,13.572L1.193,13.478L1.139,13.384L1.087,13.288L0.985,13.096L0.936,12.998L0.888,12.9L0.841,12.802L0.751,12.602L0.708,12.502L0.666,12.401L0.625,12.299L0.585,12.196L0.546,12.093L0.509,11.99L0.473,11.885L0.438,11.78L0.405,11.675L0.373,11.569L0.342,11.463L0.312,11.356L0.256,11.14L0.206,10.922L0.183,10.813L0.161,10.703L0.141,10.592L0.122,10.481L0.104,10.37L0.087,10.258L0.072,10.146L0.059,10.033L0.047,9.92L0.036,9.806L0.026,9.692L0.018,9.578L0.012,9.463L0.007,9.348L0.003,9.232L0.001,9.116L0,9L0.001,8.884L0.003,8.768L0.007,8.652L0.012,8.537L0.018,8.422L0.026,8.308L0.036,8.194L0.047,8.08L0.059,7.967L0.072,7.854L0.087,7.742L0.104,7.63L0.122,7.519L0.141,7.408L0.161,7.297L0.183,7.187L0.206,7.078L0.256,6.86L0.312,6.644L0.342,6.537L0.373,6.431L0.405,6.325L0.438,6.22L0.473,6.115L0.509,6.01L0.546,5.907L0.585,5.804L0.625,5.701L0.666,5.599L0.708,5.498L0.751,5.398L0.841,5.198L0.888,5.1L0.936,5.002L0.985,4.904L1.087,4.712L1.139,4.616L1.193,4.522L1.248,4.428L1.304,4.335L1.361,4.242L1.419,4.151L1.478,4.06L1.538,3.969L1.599,3.88L1.661,3.791L1.789,3.617L1.854,3.53L1.988,3.36L2.056,3.277L2.126,3.194L2.196,3.112L2.267,3.03L2.339,2.95L2.412,2.87L2.486,2.792L2.561,2.714L2.637,2.637L2.714,2.561L2.792,2.486L2.87,2.412L2.95,2.339L3.03,2.267L3.112,2.196L3.194,2.126L3.277,2.056L3.36,1.988L3.53,1.854L3.617,1.789L3.791,1.661L3.88,1.599L3.969,1.538L4.06,1.478L4.151,1.419L4.242,1.361L4.335,1.304L4.428,1.248L4.522,1.193L4.616,1.139L4.712,1.087L4.904,0.985L5.002,0.936L5.1,0.888L5.198,0.841L5.398,0.751L5.498,0.708L5.599,0.666L5.701,0.625L5.804,0.585L5.907,0.546L6.01,0.509L6.115,0.473L6.22,0.438L6.325,0.405L6.431,0.373L6.537,0.342L6.644,0.312L6.86,0.256L7.078,0.206L7.187,0.183L7.297,0.161L7.408,0.141L7.519,0.122L7.63,0.104L7.742,0.087L7.854,0.072L7.967,0.059L8.08,0.047L8.194,0.036L8.308,0.026L8.422,0.018L8.537,0.012L8.652,0.007L8.768,0.003L8.884,0.001L9,0L9.116,0.001L9.232,0.003L9.348,0.007L9.463,0.012L9.578,0.018L9.692,0.026L9.806,0.036L9.92,0.047L10.033,0.059L10.146,0.072L10.258,0.087L10.37,0.104L10.481,0.122L10.592,0.141L10.703,0.161L10.813,0.183L10.922,0.206L11.14,0.256L11.356,0.312L11.463,0.342L11.569,0.373L11.675,0.405L11.78,0.438L11.885,0.473L11.99,0.509L12.093,0.546L12.196,0.585L12.299,0.625L12.401,0.666L12.502,0.708L12.602,0.751L12.802,0.841L12.9,0.888L12.998,0.936L13.096,0.985L13.288,1.087L13.384,1.139L13.478,1.193L13.572,1.248L13.665,1.304L13.758,1.361L13.849,1.419L13.94,1.478L14.031,1.538L14.12,1.599L14.209,1.661L14.383,1.789L14.47,1.854L14.64,1.988L14.723,2.056L14.806,2.126L14.888,2.196L14.97,2.267L15.05,2.339L15.13,2.412L15.208,2.486L15.286,2.561L15.363,2.637L15.439,2.714L15.514,2.792L15.588,2.87L15.661,2.95L15.733,3.03L15.804,3.112L15.874,3.194L15.944,3.277L16.012,3.36L16.146,3.53L16.211,3.617L16.339,3.791L16.401,3.88L16.462,3.969L16.522,4.06L16.581,4.151L16.639,4.242L16.696,4.335L16.752,4.428L16.807,4.522L16.861,4.616L16.913,4.712L17.015,4.904L17.064,5.002L17.112,5.1L17.159,5.198L17.249,5.398L17.292,5.498L17.334,5.599L17.375,5.701L17.415,5.804L17.454,5.907L17.491,6.01L17.527,6.115L17.562,6.22L17.595,6.325L17.627,6.431L17.658,6.537L17.688,6.644L17.744,6.86L17.794,7.078L17.817,7.187L17.839,7.297L17.859,7.408L17.878,7.519L17.896,7.63L17.913,7.742L17.928,7.854L17.941,7.967L17.953,8.08L17.964,8.194L17.974,8.308L17.982,8.422L17.988,8.537L17.993,8.652L17.997,8.768L17.999,8.884L18,9L17.999,9.116L17.997,9.232L17.993,9.348L17.988,9.463L17.982,9.578L17.974,9.692L17.964,9.806L17.953,9.92L17.941,10.033L17.928,10.146L17.913,10.258L17.896,10.37L17.878,10.481L17.859,10.592L17.839,10.703L17.817,10.813L17.794,10.922L17.744,11.14L17.688,11.356L17.658,11.463L17.627,11.569L17.595,11.675L17.562,11.78L17.527,11.885L17.491,11.99L17.454,12.093L17.415,12.196L17.375,12.299L17.334,12.401L17.292,12.502L17.249,12.602L17.159,12.802L17.112,12.9L17.064,12.998L17.015,13.096L16.913,13.288L16.861,13.384L16.807,13.478L16.752,13.572L16.696,13.665L16.639,13.758L16.581,13.849L16.522,13.94L16.462,14.031L16.401,14.12L16.339,14.209L16.211,14.383L16.146,14.47L16.012,14.64L15.944,14.723L15.874,14.806L15.804,14.888L15.733,14.97L15.661,15.05L15.588,15.13L15.514,15.208L15.439,15.286L15.363,15.363L15.286,15.439L15.208,15.514L15.13,15.588L15.05,15.661L14.97,15.733L14.888,15.804L14.806,15.874L14.723,15.944L14.64,16.012L14.47,16.146L14.383,16.211L14.209,16.339L14.12,16.401L14.031,16.462L13.94,16.522L13.849,16.581L13.758,16.639L13.665,16.696L13.572,16.752L13.478,16.807L13.384,16.861L13.288,16.913L13.096,17.015L12.998,17.064L12.9,17.112L12.802,17.159L12.602,17.249L12.502,17.292L12.401,17.334L12.299,17.375L12.196,17.415L12.093,17.454L11.99,17.491L11.885,17.527L11.78,17.562L11.675,17.595L11.569,17.627L11.463,17.658L11.356,17.688L11.14,17.744L10.922,17.794L10.813,17.817L10.703,17.839L10.592,17.859L10.481,17.878L10.37,17.896L10.258,17.913L10.146,17.928L10.033,17.941L9.92,17.953L9.806,17.964L9.692,17.974L9.578,17.982L9.463,17.988L9.348,17.993L9.232,17.997L9.116,17.999L9,18ZM8.905,16.333L9.095,16.333L9.19,16.331L9.284,16.328L9.378,16.324L9.472,16.318L9.565,16.312L9.658,16.304L9.751,16.295L9.843,16.285L9.935,16.274L10.027,16.262L10.118,16.249L10.209,16.234L10.299,16.219L10.389,16.202L10.478,16.184L10.568,16.165L10.656,16.145L10.745,16.124L10.832,16.102L10.92,16.079L11.007,16.055L11.094,16.03L11.18,16.004L11.265,15.976L11.351,15.948L11.435,15.919L11.52,15.889L11.604,15.857L11.687,15.825L11.77,15.792L11.934,15.722L12.015,15.686L12.096,15.649L12.177,15.611L12.256,15.572L12.336,15.532L12.414,15.491L12.493,15.449L12.57,15.406L12.724,15.318L12.8,15.272L12.875,15.226L12.95,15.178L13.024,15.13L13.097,15.081L13.17,15.031L13.314,14.929L13.385,14.876L13.455,14.823L13.525,14.769L13.594,14.714L13.73,14.602L13.797,14.545L13.929,14.427L13.994,14.368L14.058,14.307L14.121,14.246L14.184,14.184L14.246,14.121L14.307,14.058L14.368,13.994L14.427,13.929L14.545,13.797L14.602,13.73L14.714,13.594L14.769,13.525L14.823,13.455L14.876,13.385L14.929,13.314L15.031,13.17L15.081,13.097L15.13,13.024L15.178,12.95L15.226,12.875L15.272,12.8L15.318,12.724L15.406,12.57L15.449,12.493L15.491,12.414L15.532,12.336L15.572,12.256L15.611,12.177L15.649,12.096L15.686,12.015L15.722,11.934L15.792,11.77L15.825,11.687L15.857,11.604L15.889,11.52L15.919,11.435L15.948,11.351L15.976,11.265L16.004,11.18L16.03,11.094L16.055,11.007L16.079,10.92L16.102,10.832L16.124,10.745L16.145,10.656L16.165,10.568L16.184,10.478L16.202,10.389L16.219,10.299L16.234,10.209L16.249,10.118L16.262,10.027L16.274,9.935L16.285,9.843L16.295,9.751L16.304,9.658L16.312,9.565L16.318,9.472L16.324,9.378L16.328,9.284L16.331,9.19L16.333,9.095L16.333,8.905L16.331,8.81L16.328,8.716L16.324,8.622L16.318,8.528L16.312,8.435L16.304,8.342L16.295,8.249L16.285,8.157L16.274,8.065L16.262,7.973L16.249,7.882L16.234,7.791L16.219,7.701L16.202,7.611L16.184,7.522L16.165,7.432L16.145,7.344L16.124,7.255L16.102,7.168L16.079,7.08L16.055,6.993L16.03,6.906L16.004,6.82L15.976,6.735L15.948,6.649L15.919,6.565L15.889,6.48L15.857,6.396L15.825,6.313L15.792,6.23L15.722,6.066L15.686,5.985L15.649,5.904L15.611,5.823L15.572,5.744L15.532,5.664L15.491,5.586L15.449,5.507L15.406,5.43L15.318,5.276L15.272,5.2L15.226,5.125L15.178,5.05L15.13,4.976L15.081,4.903L15.031,4.83L14.929,4.686L14.876,4.615L14.823,4.545L14.769,4.475L14.714,4.406L14.602,4.27L14.545,4.203L14.427,4.071L14.368,4.006L14.307,3.942L14.246,3.879L14.184,3.816L14.121,3.754L14.058,3.693L13.994,3.632L13.929,3.573L13.797,3.455L13.73,3.398L13.594,3.286L13.525,3.231L13.455,3.177L13.385,3.124L13.314,3.071L13.17,2.969L13.097,2.919L13.024,2.87L12.95,2.822L12.875,2.774L12.8,2.728L12.724,2.682L12.57,2.594L12.493,2.551L12.414,2.509L12.336,2.468L12.256,2.428L12.177,2.389L12.096,2.351L12.015,2.314L11.934,2.278L11.77,2.208L11.687,2.175L11.604,2.143L11.52,2.111L11.435,2.081L11.351,2.052L11.265,2.024L11.18,1.996L11.094,1.97L11.007,1.945L10.92,1.921L10.832,1.898L10.745,1.876L10.656,1.855L10.568,1.835L10.478,1.816L10.389,1.798L10.299,1.781L10.209,1.766L10.118,1.751L10.027,1.738L9.935,1.726L9.843,1.715L9.751,1.705L9.658,1.696L9.565,1.688L9.472,1.682L9.378,1.676L9.284,1.672L9.19,1.669L9.095,1.667L8.905,1.667L8.81,1.669L8.716,1.672L8.622,1.676L8.528,1.682L8.435,1.688L8.342,1.696L8.249,1.705L8.157,1.715L8.065,1.726L7.973,1.738L7.882,1.751L7.791,1.766L7.701,1.781L7.611,1.798L7.522,1.816L7.432,1.835L7.344,1.855L7.255,1.876L7.168,1.898L7.08,1.921L6.993,1.945L6.906,1.97L6.82,1.996L6.735,2.024L6.649,2.052L6.565,2.081L6.48,2.111L6.396,2.143L6.313,2.175L6.23,2.208L6.066,2.278L5.985,2.314L5.904,2.351L5.823,2.389L5.744,2.428L5.664,2.468L5.586,2.509L5.507,2.551L5.43,2.594L5.276,2.682L5.2,2.728L5.125,2.774L5.05,2.822L4.976,2.87L4.903,2.919L4.83,2.969L4.686,3.071L4.615,3.124L4.545,3.177L4.475,3.231L4.406,3.286L4.27,3.398L4.203,3.455L4.071,3.573L4.006,3.632L3.942,3.693L3.879,3.754L3.816,3.816L3.754,3.879L3.693,3.942L3.632,4.006L3.573,4.071L3.455,4.203L3.398,4.27L3.286,4.406L3.231,4.475L3.177,4.545L3.124,4.615L3.071,4.686L2.969,4.83L2.919,4.903L2.87,4.976L2.822,5.05L2.774,5.125L2.728,5.2L2.682,5.276L2.594,5.43L2.551,5.507L2.509,5.586L2.468,5.664L2.428,5.744L2.389,5.823L2.351,5.904L2.314,5.985L2.278,6.066L2.208,6.23L2.175,6.313L2.143,6.396L2.111,6.48L2.081,6.565L2.052,6.649L2.024,6.735L1.996,6.82L1.97,6.906L1.945,6.993L1.921,7.08L1.898,7.168L1.876,7.255L1.855,7.344L1.835,7.432L1.816,7.522L1.798,7.611L1.781,7.701L1.766,7.791L1.751,7.882L1.738,7.973L1.726,8.065L1.715,8.157L1.705,8.249L1.696,8.342L1.688,8.435L1.682,8.528L1.676,8.622L1.672,8.716L1.669,8.81L1.667,8.905L1.667,9.095L1.669,9.19L1.672,9.284L1.676,9.378L1.682,9.472L1.688,9.565L1.696,9.658L1.705,9.751L1.715,9.843L1.726,9.935L1.738,10.027L1.751,10.118L1.766,10.209L1.781,10.299L1.798,10.389L1.816,10.478L1.835,10.568L1.855,10.656L1.876,10.745L1.898,10.832L1.921,10.92L1.945,11.007L1.97,11.094L1.996,11.18L2.024,11.265L2.052,11.351L2.081,11.435L2.111,11.52L2.143,11.604L2.175,11.687L2.208,11.77L2.278,11.934L2.314,12.015L2.351,12.096L2.389,12.177L2.428,12.256L2.468,12.336L2.509,12.414L2.551,12.493L2.594,12.57L2.682,12.724L2.728,12.8L2.774,12.875L2.822,12.95L2.87,13.024L2.919,13.097L2.969,13.17L3.071,13.314L3.124,13.385L3.177,13.455L3.231,13.525L3.286,13.594L3.398,13.73L3.455,13.797L3.573,13.929L3.632,13.994L3.693,14.058L3.754,14.121L3.816,14.184L3.879,14.246L3.942,14.307L4.006,14.368L4.071,14.427L4.203,14.545L4.27,14.602L4.406,14.714L4.475,14.769L4.545,14.823L4.615,14.876L4.686,14.929L4.83,15.031L4.903,15.081L4.976,15.13L5.05,15.178L5.125,15.226L5.2,15.272L5.276,15.318L5.43,15.406L5.507,15.449L5.586,15.491L5.664,15.532L5.744,15.572L5.823,15.611L5.904,15.649L5.985,15.686L6.066,15.722L6.23,15.792L6.313,15.825L6.396,15.857L6.48,15.889L6.565,15.919L6.649,15.948L6.735,15.976L6.82,16.004L6.906,16.03L6.993,16.055L7.08,16.079L7.168,16.102L7.255,16.124L7.344,16.145L7.432,16.165L7.522,16.184L7.611,16.202L7.701,16.219L7.791,16.234L7.882,16.249L7.973,16.262L8.065,16.274L8.157,16.285L8.249,16.295L8.342,16.304L8.435,16.312L8.528,16.318L8.622,16.324L8.716,16.328L8.81,16.331L8.905,16.333Z" style="fill:white;"/>
</svg>
