<?xml version="1.0" encoding="UTF-8"?>
<svg width="18px" height="18px" viewBox="0 0 18 18" version="1.1" xmlns="http://www.w3.org/2000/svg" xmlns:xlink="http://www.w3.org/1999/xlink">
    <title>register</title>
    <g id="register" stroke="none" stroke-width="1" fill="none" fill-rule="evenodd">
        <path d="M15,2 C16.6568542,2 18,3.34314575 18,5 L18,13 C18,14.6568542 16.6568542,16 15,16 L3,16 C1.34314575,16 -6.85272294e-16,14.6568542 0,13 L0,5 C-2.02906125e-16,3.34314575 1.34314575,2 3,2 L15,2 Z M5.38888889,9.88888889 C3.79339961,9.88888889 2.5,10.5853348 2.5,11.4444444 C2.5,12.3035541 3.79339961,13 5.38888889,13 C6.98437817,13 8.27777778,12.3035541 8.27777778,11.4444444 C8.27777778,10.5853348 6.98437817,9.88888889 5.38888889,9.88888889 Z M13,10 L11,10 C10.4477153,10 10,10.4477153 10,11 C10,11.5522847 10.4477153,12 11,12 L11,12 L13,12 C13.5522847,12 14,11.5522847 14,11 C14,10.4477153 13.5522847,10 13,10 L13,10 Z M5.45397467,5 C4.47213512,5 3.6761969,5.79593822 3.6761969,6.77777778 C3.6761969,7.75961733 4.47213512,8.55555556 5.45397467,8.55555556 C6.43581423,8.55555556 7.23175245,7.75961733 7.23175245,6.77777778 C7.23175245,5.79593822 6.43581423,5 5.45397467,5 Z M14.5,6 L11,6 C10.4477153,6 10,6.44771525 10,7 C10,7.55228475 10.4477153,8 11,8 L11,8 L14.5,8 C15.0522847,8 15.5,7.55228475 15.5,7 C15.5,6.44771525 15.0522847,6 14.5,6 L14.5,6 Z" id="Combined-Shape" fill="#B3B8CC"></path>
    </g>
</svg>