<?xml version="1.0" standalone="no"?>
<!DOCTYPE svg PUBLIC "-//W3C//DTD SVG 1.1//EN" "http://www.w3.org/Graphics/SVG/1.1/DTD/svg11.dtd">
<svg width="100%" height="100%" viewBox="0 0 14 14" version="1.1" xmlns="http://www.w3.org/2000/svg" xmlns:xlink="http://www.w3.org/1999/xlink" xml:space="preserve" style="fill-rule:evenodd;clip-rule:evenodd;stroke-linejoin:round;stroke-miterlimit:1.41421;">
    <path d="M4.034,13.999C3.872,13.999 3.718,13.973 3.571,13.903C3.236,13.744 3.013,13.404 3.001,13.034C2.997,12.943 3.007,12.852 3.028,12.763C3.061,12.63 3.121,12.505 3.203,12.396C3.24,12.347 3.251,12.337 3.293,12.293L8.586,7L3.293,1.707L3.246,1.657C3.208,1.61 3.197,1.599 3.164,1.548C3.076,1.415 3.022,1.261 3.005,1.102C2.994,0.989 3.001,0.874 3.028,0.763C3.128,0.357 3.481,0.048 3.898,0.005C4.034,-0.009 4.172,0.006 4.303,0.047C4.458,0.096 4.589,0.183 4.707,0.293L11.414,7L4.707,13.707L4.657,13.754C4.604,13.797 4.55,13.838 4.49,13.872C4.389,13.928 4.283,13.962 4.17,13.985C4.102,13.995 4.102,13.995 4.034,13.999Z" style="fill:rgb(188,192,203);fill-rule:nonzero;"/>
</svg>
