<?xml version="1.0" encoding="UTF-8"?>
<svg width="20px" height="20px" viewBox="0 0 20 20" version="1.1" xmlns="http://www.w3.org/2000/svg" xmlns:xlink="http://www.w3.org/1999/xlink">
    <title>public icon@3x</title>
    <g id="Auction-App" stroke="none" stroke-width="1" fill="none" fill-rule="evenodd">
        <g id="Auction-public-or-private-choice" transform="translate(-44.000000, -165.000000)" fill="#3155F7">
            <g id="Group-3" transform="translate(22.000000, 142.000000)">
                <g id="Group-5" transform="translate(22.000000, 23.000000)">
                    <path d="M10,0 L20,2.22222222 C19.161837,8.06360493 18.0507259,12.137679 16.6666667,14.4444444 C15.2826074,16.7512099 13.0603852,18.6030617 10,20 C6.98650684,18.6812151 4.76428462,16.8293633 3.33333333,14.4444444 C1.90238205,12.0595256 0.791270935,7.98545156 0,2.22222222 L10,0 Z M10,4.28571429 C8.42204357,4.28571429 7.14285714,5.56490071 7.14285714,7.14285714 C7.14285714,8.47385406 8.05297561,9.59228141 9.28483417,9.90976083 L9.28483417,9.90976083 L9.28571429,13.7857143 C9.28571429,14.0618567 9.50957191,14.2857143 9.78571429,14.2857143 L9.78571429,14.2857143 L10.2142857,14.2857143 C10.4904281,14.2857143 10.7142857,14.0618567 10.7142857,13.7857143 L10.7142857,13.7857143 L10.7145461,9.90992048 C11.9467191,9.59265651 12.8571429,8.47407725 12.8571429,7.14285714 C12.8571429,5.56490071 11.5779564,4.28571429 10,4.28571429 Z" id="Combined-Shape"></path>
                </g>
            </g>
        </g>
    </g>
</svg>