<?xml version="1.0" encoding="UTF-8"?>
<svg width="20px" height="20px" viewBox="0 0 20 20" version="1.1" xmlns="http://www.w3.org/2000/svg" xmlns:xlink="http://www.w3.org/1999/xlink">
    <title>verified</title>
    <g id="Auction-App" stroke="none" stroke-width="1" fill="none" fill-rule="evenodd">
        <g id="Profile" transform="translate(-236.000000, -175.000000)">
            <g id="verified" transform="translate(236.000000, 175.000000)">
                <polygon id="Star" fill="#009669" points="10 18 7.41180955 19.6592583 6 16.9282032 2.92893219 17.0710678 3.07179677 14 0.340741737 12.5881905 2 10 0.340741737 7.41180955 3.07179677 6 2.92893219 2.92893219 6 3.07179677 7.41180955 0.340741737 10 2 12.5881905 0.340741737 14 3.07179677 17.0710678 2.92893219 16.9282032 6 19.6592583 7.41180955 18 10 19.6592583 12.5881905 16.9282032 14 17.0710678 17.0710678 14 16.9282032 12.5881905 19.6592583"></polygon>
                <polyline id="Path-3" stroke="#FFFFFF" stroke-width="1.5" stroke-linecap="round" stroke-linejoin="round" points="6.5 9.67191102 9.01280454 12.1847156 13.5 7.5"></polyline>
            </g>
        </g>
    </g>
</svg>