<?xml version="1.0" encoding="UTF-8" standalone="no"?>
<!DOCTYPE svg PUBLIC "-//W3C//DTD SVG 1.1//EN" "http://www.w3.org/Graphics/SVG/1.1/DTD/svg11.dtd">
<svg width="100%" height="100%" viewBox="0 0 16 16" version="1.1" xmlns="http://www.w3.org/2000/svg" xmlns:xlink="http://www.w3.org/1999/xlink" xml:space="preserve" xmlns:serif="http://www.serif.com/" style="fill-rule:evenodd;clip-rule:evenodd;stroke-linecap:round;stroke-linejoin:round;stroke-miterlimit:1.5;">
    <g transform="matrix(1,0,0,1,8.88178e-16,0.0154401)">
        <g transform="matrix(2.74169,0,0,0.853964,-1.72236,-1.32545)">
            <path d="M6.1,15.011L4.361,15.011" style="fill:none;stroke:rgb(69,74,87);stroke-width:0.62px;"/>
        </g>
        <g transform="matrix(-5.03641e-16,2.74169,-0.853964,-1.56871e-16,25.4359,-2.84667)">
            <path d="M6.1,15.011L4.361,15.011" style="fill:none;stroke:rgb(69,74,87);stroke-width:0.62px;"/>
        </g>
        <g transform="matrix(2.74169,0,0,0.853964,-1.72236,1.16603)">
            <path d="M3.752,15.011L1.868,15.011C1.385,15.011 0.993,13.751 0.993,12.2L0.993,3.769C0.993,2.218 1.267,0.959 1.75,0.959L2.41,0.959C2.819,0.959 3.151,2.024 3.151,3.338C3.151,3.597 3.151,3.769 3.151,3.769L2.306,3.769L5.224,3.769C5.707,3.769 6.1,5.028 6.1,6.579" style="fill:none;stroke:rgb(69,74,87);stroke-width:0.62px;"/>
        </g>
    </g>
</svg>
