<?xml version="1.0" encoding="UTF-8" standalone="no"?>
<!DOCTYPE svg PUBLIC "-//W3C//DTD SVG 1.1//EN" "http://www.w3.org/Graphics/SVG/1.1/DTD/svg11.dtd">
<svg width="100%" height="100%" viewBox="0 0 18 18" version="1.1" xmlns="http://www.w3.org/2000/svg" xmlns:xlink="http://www.w3.org/1999/xlink" xml:space="preserve" xmlns:serif="http://www.serif.com/" style="fill-rule:evenodd;clip-rule:evenodd;stroke-linecap:round;stroke-linejoin:round;stroke-miterlimit:1.41421;">
    <g transform="matrix(1.2,0,0,1.2,-2.4,-1)">
        <circle cx="9.5" cy="7.5" r="2.5" style="fill:none;stroke:white;stroke-width:1.39px;"/>
    </g>
    <g transform="matrix(0.888889,0,0,0.888889,1,0)">
        <path d="M9,20.25L8.899,20.202L8.778,20.143L8.613,20.06L8.409,19.954L8.294,19.893L8.169,19.825L8.037,19.752L7.896,19.673L7.749,19.589L7.594,19.499L7.432,19.403L7.265,19.302L7.091,19.195L6.913,19.082L6.729,18.965L6.541,18.841L6.348,18.712L6.152,18.578L5.953,18.438L5.751,18.293L5.546,18.142L5.339,17.986L5.131,17.825L5.026,17.742L4.921,17.658L4.816,17.573L4.711,17.486L4.605,17.398L4.5,17.309L4.395,17.219L4.289,17.127L4.184,17.034L4.079,16.939L3.974,16.843L3.869,16.746L3.765,16.648L3.661,16.548L3.557,16.447L3.454,16.345L3.351,16.242L3.249,16.137L3.148,16.031L3.047,15.924L2.947,15.815L2.848,15.705L2.749,15.594L2.652,15.482L2.555,15.368L2.459,15.253L2.365,15.137L2.271,15.02L2.179,14.901L2.087,14.781L1.997,14.66L1.909,14.538L1.821,14.414L1.735,14.289L1.651,14.163L1.568,14.036L1.486,13.907L1.406,13.778L1.328,13.647L1.251,13.514L1.177,13.381L1.104,13.246L1.032,13.111L0.963,12.974L0.896,12.836L0.831,12.696L0.767,12.556L0.706,12.414L0.647,12.271L0.591,12.127L0.536,11.981L0.484,11.835L0.434,11.687L0.387,11.538L0.342,11.388L0.299,11.237L0.26,11.085L0.222,10.931L0.188,10.777L0.156,10.621L0.127,10.464L0.101,10.306L0.078,10.147L0.057,9.986L0.04,9.825L0.026,9.662L0.015,9.498L0.007,9.333L0.002,9.167L0,9L0.001,8.884L0.003,8.768L0.007,8.652L0.012,8.537L0.018,8.422L0.026,8.308L0.036,8.194L0.047,8.08L0.059,7.967L0.072,7.854L0.087,7.742L0.104,7.63L0.122,7.519L0.141,7.408L0.161,7.297L0.183,7.187L0.206,7.078L0.256,6.86L0.312,6.644L0.342,6.537L0.373,6.431L0.405,6.325L0.438,6.22L0.473,6.115L0.509,6.01L0.546,5.907L0.585,5.804L0.625,5.701L0.666,5.599L0.708,5.498L0.751,5.398L0.841,5.198L0.888,5.1L0.936,5.002L0.985,4.904L1.087,4.712L1.139,4.616L1.193,4.522L1.248,4.428L1.304,4.335L1.361,4.242L1.419,4.151L1.478,4.06L1.538,3.969L1.599,3.88L1.661,3.791L1.789,3.617L1.854,3.53L1.988,3.36L2.056,3.277L2.126,3.194L2.196,3.112L2.267,3.03L2.339,2.95L2.412,2.87L2.486,2.792L2.561,2.714L2.637,2.637L2.714,2.561L2.792,2.486L2.87,2.412L2.95,2.339L3.03,2.267L3.112,2.196L3.194,2.126L3.277,2.056L3.36,1.988L3.53,1.854L3.617,1.789L3.791,1.661L3.88,1.599L3.969,1.538L4.06,1.478L4.151,1.419L4.242,1.361L4.335,1.304L4.428,1.248L4.522,1.193L4.616,1.139L4.712,1.087L4.904,0.985L5.002,0.936L5.1,0.888L5.198,0.841L5.398,0.751L5.498,0.708L5.599,0.666L5.701,0.625L5.804,0.585L5.907,0.546L6.01,0.509L6.115,0.473L6.22,0.438L6.325,0.405L6.431,0.373L6.537,0.342L6.644,0.312L6.86,0.256L7.078,0.206L7.187,0.183L7.297,0.161L7.408,0.141L7.519,0.122L7.63,0.104L7.742,0.087L7.854,0.072L7.967,0.059L8.08,0.047L8.194,0.036L8.308,0.026L8.422,0.018L8.537,0.012L8.652,0.007L8.768,0.003L8.884,0.001L9,0L9.116,0.001L9.232,0.003L9.348,0.007L9.463,0.012L9.578,0.018L9.692,0.026L9.806,0.036L9.92,0.047L10.033,0.059L10.146,0.072L10.258,0.087L10.37,0.104L10.481,0.122L10.592,0.141L10.703,0.161L10.813,0.183L10.922,0.206L11.14,0.256L11.356,0.312L11.463,0.342L11.569,0.373L11.675,0.405L11.78,0.438L11.885,0.473L11.99,0.509L12.093,0.546L12.196,0.585L12.299,0.625L12.401,0.666L12.502,0.708L12.602,0.751L12.802,0.841L12.9,0.888L12.998,0.936L13.096,0.985L13.288,1.087L13.384,1.139L13.478,1.193L13.572,1.248L13.665,1.304L13.758,1.361L13.849,1.419L13.94,1.478L14.031,1.538L14.12,1.599L14.209,1.661L14.383,1.789L14.47,1.854L14.64,1.988L14.723,2.056L14.806,2.126L14.888,2.196L14.97,2.267L15.05,2.339L15.13,2.412L15.208,2.486L15.286,2.561L15.363,2.637L15.439,2.714L15.514,2.792L15.588,2.87L15.661,2.95L15.733,3.03L15.804,3.112L15.874,3.194L15.944,3.277L16.012,3.36L16.146,3.53L16.211,3.617L16.339,3.791L16.401,3.88L16.462,3.969L16.522,4.06L16.581,4.151L16.639,4.242L16.696,4.335L16.752,4.428L16.807,4.522L16.861,4.616L16.913,4.712L17.015,4.904L17.064,5.002L17.112,5.1L17.159,5.198L17.249,5.398L17.292,5.498L17.334,5.599L17.375,5.701L17.415,5.804L17.454,5.907L17.491,6.01L17.527,6.115L17.562,6.22L17.595,6.325L17.627,6.431L17.658,6.537L17.688,6.644L17.744,6.86L17.794,7.078L17.817,7.187L17.839,7.297L17.859,7.408L17.878,7.519L17.896,7.63L17.913,7.742L17.928,7.854L17.941,7.967L17.953,8.08L17.964,8.194L17.974,8.308L17.982,8.422L17.988,8.537L17.993,8.652L17.997,8.768L17.999,8.884L18,9L17.998,9.163L17.993,9.325L17.985,9.485L17.974,9.645L17.96,9.804L17.943,9.962L17.922,10.118L17.899,10.274L17.873,10.429L17.844,10.583L17.812,10.735L17.778,10.887L17.74,11.038L17.701,11.187L17.658,11.336L17.613,11.483L17.566,11.63L17.516,11.775L17.464,11.919L17.409,12.063L17.353,12.205L17.294,12.346L17.233,12.486L17.169,12.625L17.104,12.762L17.037,12.899L16.968,13.035L16.896,13.169L16.823,13.303L16.749,13.435L16.672,13.566L16.594,13.696L16.514,13.825L16.432,13.953L16.349,14.08L16.265,14.205L16.179,14.329L16.091,14.453L16.003,14.575L15.913,14.696L15.729,14.934L15.541,15.168L15.445,15.283L15.251,15.509L15.053,15.731L14.953,15.84L14.852,15.948L14.751,16.054L14.649,16.16L14.546,16.264L14.443,16.367L14.235,16.569L14.131,16.668L14.026,16.766L13.921,16.863L13.816,16.958L13.711,17.052L13.605,17.145L13.5,17.237L13.395,17.327L13.289,17.416L13.184,17.504L13.079,17.591L12.974,17.676L12.869,17.76L12.661,17.924L12.454,18.083L12.249,18.236L12.047,18.384L11.848,18.527L11.652,18.664L11.459,18.796L11.271,18.923L11.087,19.044L10.909,19.159L10.735,19.269L10.568,19.373L10.406,19.472L10.251,19.565L10.104,19.652L9.963,19.733L9.831,19.809L9.706,19.878L9.591,19.942L9.387,20.052L9.222,20.138L9.101,20.2L9,20.25ZM8.984,18.133L9.157,18.033L9.293,17.953L9.435,17.868L9.584,17.777L9.739,17.681L9.898,17.579L10.063,17.473L10.233,17.362L10.406,17.245L10.583,17.123L10.764,16.997L10.947,16.866L11.133,16.73L11.321,16.589L11.51,16.443L11.703,16.292L11.796,16.217L11.892,16.139L11.988,16.06L12.083,15.98L12.179,15.9L12.275,15.818L12.37,15.734L12.466,15.65L12.561,15.565L12.656,15.479L12.75,15.392L12.844,15.304L12.938,15.215L13.031,15.125L13.124,15.034L13.216,14.942L13.398,14.756L13.488,14.661L13.577,14.566L13.666,14.469L13.753,14.372L13.84,14.274L13.925,14.176L14.01,14.076L14.093,13.976L14.175,13.875L14.256,13.773L14.336,13.671L14.415,13.567L14.492,13.464L14.568,13.359L14.643,13.254L14.716,13.148L14.788,13.042L14.858,12.935L14.927,12.827L14.994,12.719L15.059,12.61L15.123,12.501L15.185,12.391L15.245,12.281L15.304,12.17L15.361,12.059L15.416,11.947L15.469,11.835L15.52,11.722L15.569,11.609L15.617,11.496L15.662,11.382L15.706,11.267L15.747,11.152L15.787,11.037L15.824,10.922L15.86,10.805L15.893,10.689L15.924,10.572L15.953,10.454L15.98,10.336L16.005,10.218L16.027,10.099L16.047,9.979L16.065,9.859L16.081,9.739L16.094,9.617L16.105,9.495L16.114,9.373L16.12,9.249L16.124,9.125L16.125,8.997L16.124,8.908L16.123,8.815L16.12,8.724L16.116,8.632L16.104,8.45L16.097,8.36L16.088,8.27L16.078,8.18L16.068,8.091L16.056,8.002L16.043,7.914L16.029,7.826L16.014,7.738L15.997,7.65L15.98,7.563L15.962,7.477L15.922,7.305L15.901,7.219L15.878,7.135L15.855,7.05L15.805,6.882L15.751,6.716L15.693,6.552L15.663,6.471L15.599,6.309L15.566,6.229L15.531,6.15L15.496,6.07L15.46,5.992L15.423,5.914L15.385,5.836L15.346,5.759L15.266,5.607L15.182,5.457L15.138,5.382L15.094,5.309L15.049,5.235L15.003,5.163L14.909,5.019L14.86,4.949L14.811,4.878L14.761,4.809L14.71,4.74L14.658,4.671L14.552,4.537L14.498,4.47L14.443,4.404L14.387,4.339L14.331,4.275L14.273,4.211L14.215,4.148L14.157,4.086L14.097,4.024L14.037,3.963L13.976,3.903L13.914,3.843L13.852,3.785L13.789,3.727L13.725,3.669L13.661,3.613L13.596,3.557L13.53,3.502L13.463,3.448L13.329,3.342L13.26,3.29L13.191,3.239L13.122,3.189L13.051,3.14L12.981,3.091L12.837,2.997L12.765,2.951L12.691,2.906L12.618,2.862L12.543,2.818L12.393,2.734L12.241,2.654L12.164,2.615L12.086,2.577L12.008,2.54L11.93,2.504L11.85,2.469L11.771,2.434L11.691,2.401L11.529,2.337L11.448,2.307L11.284,2.249L11.118,2.195L10.95,2.145L10.78,2.099L10.695,2.078L10.523,2.038L10.437,2.02L10.35,2.003L10.262,1.986L10.174,1.971L10.086,1.957L9.998,1.944L9.909,1.932L9.82,1.922L9.73,1.912L9.64,1.903L9.55,1.896L9.368,1.884L9.276,1.88L9.185,1.877L9,1.875L8.815,1.877L8.724,1.88L8.632,1.884L8.45,1.896L8.36,1.903L8.27,1.912L8.18,1.922L8.091,1.932L8.002,1.944L7.914,1.957L7.826,1.971L7.738,1.986L7.65,2.003L7.563,2.02L7.477,2.038L7.305,2.078L7.22,2.099L7.05,2.145L6.882,2.195L6.716,2.249L6.552,2.307L6.471,2.337L6.309,2.401L6.229,2.434L6.15,2.469L6.07,2.504L5.992,2.54L5.914,2.577L5.836,2.615L5.759,2.654L5.607,2.734L5.457,2.818L5.382,2.862L5.309,2.906L5.235,2.951L5.163,2.997L5.019,3.091L4.949,3.14L4.878,3.189L4.809,3.239L4.74,3.29L4.671,3.342L4.537,3.448L4.47,3.502L4.404,3.557L4.339,3.613L4.275,3.669L4.211,3.727L4.148,3.785L4.086,3.843L4.024,3.903L3.963,3.963L3.903,4.024L3.843,4.086L3.785,4.148L3.727,4.211L3.669,4.275L3.613,4.339L3.557,4.404L3.502,4.47L3.448,4.537L3.342,4.671L3.29,4.74L3.239,4.809L3.189,4.878L3.14,4.949L3.091,5.019L2.997,5.163L2.951,5.235L2.906,5.309L2.862,5.382L2.818,5.457L2.734,5.607L2.654,5.759L2.615,5.836L2.577,5.914L2.54,5.992L2.504,6.07L2.469,6.15L2.434,6.229L2.401,6.309L2.337,6.471L2.307,6.552L2.249,6.716L2.195,6.882L2.145,7.05L2.099,7.22L2.078,7.305L2.038,7.477L2.02,7.563L2.003,7.65L1.986,7.738L1.971,7.826L1.957,7.914L1.944,8.002L1.932,8.091L1.922,8.18L1.912,8.27L1.903,8.36L1.896,8.45L1.884,8.632L1.88,8.724L1.877,8.815L1.876,8.908L1.875,8.997L1.876,9.13L1.88,9.26L1.886,9.388L1.895,9.516L1.906,9.642L1.92,9.768L1.936,9.893L1.954,10.017L1.974,10.141L1.997,10.263L2.022,10.385L2.049,10.507L2.078,10.627L2.109,10.747L2.143,10.867L2.178,10.985L2.216,11.103L2.256,11.221L2.297,11.338L2.341,11.454L2.386,11.57L2.434,11.685L2.483,11.8L2.535,11.914L2.588,12.027L2.643,12.14L2.7,12.252L2.758,12.364L2.818,12.475L2.88,12.586L2.944,12.696L3.009,12.805L3.076,12.913L3.145,13.021L3.215,13.128L3.286,13.235L3.359,13.341L3.433,13.446L3.509,13.55L3.586,13.654L3.664,13.757L3.744,13.859L3.825,13.96L3.907,14.061L3.99,14.161L4.074,14.26L4.159,14.358L4.245,14.455L4.332,14.551L4.42,14.647L4.598,14.835L4.78,15.019L4.871,15.11L4.963,15.2L5.056,15.289L5.149,15.376L5.243,15.463L5.337,15.549L5.432,15.634L5.526,15.718L5.621,15.801L5.716,15.882L5.812,15.963L6.002,16.121L6.098,16.198L6.193,16.274L6.286,16.348L6.478,16.496L6.666,16.639L6.853,16.776L7.038,16.909L7.221,17.037L7.4,17.16L7.577,17.278L7.75,17.392L7.918,17.5L8.082,17.603L8.242,17.701L8.395,17.794L8.543,17.882L8.685,17.964L8.82,18.042L8.948,18.113L8.984,18.133Z" style="fill:white;"/>
    </g>
</svg>
