<?xml version="1.0" encoding="UTF-8"?>
<svg width="18px" height="18px" viewBox="0 0 18 18" version="1.1" xmlns="http://www.w3.org/2000/svg" xmlns:xlink="http://www.w3.org/1999/xlink">
    <title>password</title>
    <g id="password" stroke="none" stroke-width="1" fill="none" fill-rule="evenodd">
        <path d="M9,2 L16,3.55555556 C15.4132859,7.64452345 14.6355082,10.4963753 13.6666667,12.1111111 C12.6978252,13.7258469 11.1422696,15.0221432 9,16 C6.89055479,15.0768506 5.33499923,13.7805543 4.33333333,12.1111111 C3.33166743,10.4416679 2.55388965,7.58981609 2,3.55555556 L9,2 Z M9,5 C7.8954305,5 7,5.8954305 7,7 C7,7.93191279 7.63737692,8.71495822 8.49998077,8.93698631 L8.49998077,8.93698631 L8.5,11.5 C8.5,11.7761424 8.72385763,12 9,12 C9.27614237,12 9.5,11.7761424 9.5,11.5 L9.5,11.5 L9.50102216,8.93672788 C10.3631171,8.71435119 11,7.93155158 11,7 C11,5.8954305 10.1045695,5 9,5 Z" id="Combined-Shape" fill="#B3B8CC"></path>
    </g>
</svg>