<?xml version="1.0" encoding="UTF-8" standalone="no"?>
<!DOCTYPE svg PUBLIC "-//W3C//DTD SVG 1.1//EN" "http://www.w3.org/Graphics/SVG/1.1/DTD/svg11.dtd">
<svg width="100%" height="100%" viewBox="0 0 18 18" version="1.1" xmlns="http://www.w3.org/2000/svg" xmlns:xlink="http://www.w3.org/1999/xlink" xml:space="preserve" xmlns:serif="http://www.serif.com/" style="fill-rule:evenodd;clip-rule:evenodd;stroke-linecap:round;stroke-linejoin:round;stroke-miterlimit:1.41421;">
    <g id="Layer1">
        <g transform="matrix(1,0,0,1.16667,0,-1.5)">
            <path d="M3,15L2.923,14.999L2.846,14.997L2.769,14.992L2.693,14.987L2.618,14.979L2.543,14.97L2.469,14.96L2.396,14.948L2.323,14.934L2.251,14.919L2.179,14.902L2.108,14.884L2.038,14.865L1.969,14.844L1.9,14.822L1.833,14.798L1.766,14.773L1.7,14.746L1.635,14.719L1.507,14.659L1.445,14.628L1.384,14.595L1.323,14.561L1.264,14.525L1.206,14.489L1.148,14.451L1.092,14.413L1.037,14.373L0.983,14.332L0.931,14.29L0.879,14.246L0.829,14.202L0.78,14.157L0.732,14.111L0.685,14.064L0.64,14.016L0.596,13.967L0.554,13.917L0.513,13.866L0.473,13.814L0.435,13.762L0.398,13.708L0.362,13.654L0.328,13.599L0.296,13.543L0.265,13.486L0.236,13.429L0.208,13.371L0.182,13.312L0.158,13.253L0.135,13.193L0.114,13.132L0.095,13.071L0.077,13.009L0.061,12.947L0.047,12.884L0.035,12.82L0.024,12.756L0.016,12.691L0.009,12.626L0.004,12.561L0.001,12.495L0,12.429L0,5.571L0.001,5.505L0.004,5.439L0.009,5.374L0.016,5.309L0.024,5.244L0.035,5.18L0.047,5.116L0.061,5.053L0.077,4.991L0.095,4.929L0.114,4.868L0.135,4.807L0.158,4.747L0.182,4.688L0.208,4.629L0.236,4.571L0.265,4.514L0.296,4.457L0.328,4.401L0.362,4.346L0.398,4.292L0.435,4.238L0.473,4.186L0.513,4.134L0.554,4.083L0.596,4.033L0.64,3.984L0.685,3.936L0.732,3.889L0.78,3.843L0.829,3.798L0.879,3.754L0.931,3.71L0.983,3.668L1.037,3.627L1.092,3.587L1.148,3.549L1.206,3.511L1.264,3.475L1.323,3.439L1.384,3.405L1.445,3.372L1.507,3.341L1.635,3.281L1.7,3.254L1.766,3.227L1.833,3.202L1.9,3.178L1.969,3.156L2.038,3.135L2.108,3.116L2.179,3.098L2.251,3.081L2.323,3.066L2.396,3.052L2.469,3.04L2.543,3.03L2.618,3.021L2.693,3.013L2.769,3.008L2.846,3.003L2.923,3.001L3,3L15,3L15.077,3.001L15.154,3.003L15.231,3.008L15.307,3.013L15.382,3.021L15.457,3.03L15.531,3.04L15.604,3.052L15.677,3.066L15.749,3.081L15.821,3.098L15.892,3.116L15.962,3.135L16.031,3.156L16.1,3.178L16.167,3.202L16.234,3.227L16.3,3.254L16.365,3.281L16.493,3.341L16.555,3.372L16.616,3.405L16.677,3.439L16.736,3.475L16.794,3.511L16.852,3.549L16.908,3.587L16.963,3.627L17.017,3.668L17.069,3.71L17.121,3.754L17.171,3.798L17.22,3.843L17.268,3.889L17.315,3.936L17.36,3.984L17.404,4.033L17.446,4.083L17.487,4.134L17.527,4.186L17.565,4.238L17.602,4.292L17.638,4.346L17.672,4.401L17.704,4.457L17.735,4.514L17.764,4.571L17.792,4.629L17.818,4.688L17.842,4.747L17.865,4.807L17.886,4.868L17.905,4.929L17.923,4.991L17.939,5.053L17.953,5.116L17.965,5.18L17.976,5.244L17.984,5.309L17.991,5.374L17.996,5.439L17.999,5.505L18,5.571L18,12.429L17.999,12.495L17.996,12.561L17.991,12.626L17.984,12.691L17.976,12.756L17.965,12.82L17.953,12.884L17.939,12.947L17.923,13.009L17.905,13.071L17.886,13.132L17.865,13.193L17.842,13.253L17.818,13.312L17.792,13.371L17.764,13.429L17.735,13.486L17.704,13.543L17.672,13.599L17.638,13.654L17.602,13.708L17.565,13.762L17.527,13.814L17.487,13.866L17.446,13.917L17.404,13.967L17.36,14.016L17.315,14.064L17.268,14.111L17.22,14.157L17.171,14.202L17.121,14.246L17.069,14.29L17.017,14.332L16.963,14.373L16.908,14.413L16.852,14.451L16.794,14.489L16.736,14.525L16.677,14.561L16.616,14.595L16.555,14.628L16.493,14.659L16.365,14.719L16.3,14.746L16.234,14.773L16.167,14.798L16.1,14.822L16.031,14.844L15.962,14.865L15.892,14.884L15.821,14.902L15.749,14.919L15.677,14.934L15.604,14.948L15.531,14.96L15.457,14.97L15.382,14.979L15.307,14.987L15.231,14.992L15.154,14.997L15.077,14.999L15,15L3,15ZM2.965,13.571L15.035,13.571L15.07,13.57L15.104,13.568L15.138,13.565L15.171,13.562L15.205,13.558L15.237,13.553L15.27,13.548L15.302,13.542L15.334,13.535L15.365,13.528L15.427,13.512L15.458,13.502L15.488,13.493L15.518,13.482L15.547,13.471L15.605,13.447L15.634,13.434L15.662,13.421L15.689,13.407L15.717,13.392L15.744,13.377L15.796,13.345L15.822,13.328L15.847,13.311L15.871,13.293L15.896,13.274L15.919,13.256L15.965,13.216L15.987,13.196L16.008,13.176L16.049,13.133L16.069,13.111L16.088,13.089L16.124,13.043L16.141,13.019L16.158,12.996L16.173,12.972L16.188,12.947L16.203,12.923L16.216,12.898L16.229,12.872L16.241,12.847L16.253,12.821L16.264,12.795L16.274,12.768L16.283,12.742L16.291,12.715L16.299,12.687L16.306,12.66L16.318,12.604L16.322,12.576L16.326,12.547L16.329,12.518L16.333,12.459L16.333,5.541L16.331,5.512L16.329,5.482L16.326,5.453L16.322,5.424L16.318,5.396L16.306,5.34L16.299,5.313L16.291,5.285L16.283,5.258L16.274,5.232L16.264,5.205L16.253,5.179L16.241,5.153L16.229,5.128L16.216,5.102L16.203,5.077L16.188,5.053L16.173,5.028L16.158,5.004L16.141,4.981L16.124,4.957L16.088,4.911L16.069,4.889L16.049,4.867L16.008,4.824L15.987,4.804L15.965,4.784L15.919,4.744L15.896,4.726L15.871,4.707L15.847,4.689L15.822,4.672L15.796,4.655L15.744,4.623L15.717,4.608L15.689,4.593L15.662,4.579L15.634,4.566L15.605,4.553L15.547,4.529L15.518,4.518L15.488,4.507L15.458,4.498L15.427,4.488L15.365,4.472L15.334,4.465L15.302,4.458L15.27,4.452L15.237,4.447L15.205,4.442L15.171,4.438L15.138,4.435L15.104,4.432L15.07,4.43L15.035,4.429L2.965,4.429L2.93,4.43L2.896,4.432L2.862,4.435L2.829,4.438L2.795,4.442L2.763,4.447L2.73,4.452L2.698,4.458L2.666,4.465L2.635,4.472L2.573,4.488L2.542,4.498L2.512,4.507L2.482,4.518L2.453,4.529L2.395,4.553L2.366,4.566L2.338,4.579L2.311,4.593L2.283,4.608L2.256,4.623L2.204,4.655L2.178,4.672L2.153,4.689L2.129,4.707L2.104,4.726L2.081,4.744L2.035,4.784L2.013,4.804L1.992,4.824L1.951,4.867L1.931,4.889L1.912,4.911L1.876,4.957L1.859,4.981L1.842,5.004L1.827,5.028L1.812,5.053L1.797,5.077L1.784,5.102L1.771,5.128L1.759,5.153L1.747,5.179L1.736,5.205L1.726,5.232L1.717,5.258L1.709,5.285L1.701,5.313L1.694,5.34L1.682,5.396L1.678,5.424L1.674,5.453L1.671,5.482L1.667,5.541L1.667,12.459L1.671,12.518L1.674,12.547L1.678,12.576L1.682,12.604L1.694,12.66L1.701,12.687L1.709,12.715L1.717,12.742L1.726,12.768L1.736,12.795L1.747,12.821L1.759,12.847L1.771,12.872L1.784,12.898L1.797,12.923L1.812,12.947L1.827,12.972L1.842,12.996L1.859,13.019L1.876,13.043L1.912,13.089L1.931,13.111L1.951,13.133L1.992,13.176L2.013,13.196L2.035,13.216L2.081,13.256L2.104,13.274L2.129,13.293L2.153,13.311L2.178,13.328L2.204,13.345L2.256,13.377L2.283,13.392L2.311,13.407L2.338,13.421L2.366,13.434L2.395,13.447L2.453,13.471L2.482,13.482L2.512,13.493L2.542,13.502L2.573,13.512L2.635,13.528L2.666,13.535L2.698,13.542L2.73,13.548L2.763,13.553L2.795,13.558L2.829,13.562L2.862,13.565L2.896,13.568L2.93,13.57L2.965,13.571Z" style="fill:white;"/>
        </g>
        <g transform="matrix(0.875,0,0,-0.875,1.125,17.625)">
            <path d="M1,4.143L9,11L17,4.143" style="fill:none;stroke:white;stroke-width:1.9px;"/>
        </g>
        <g transform="matrix(0.875,0,0,0.875,1.125,0.875)">
            <path d="M-0.143,4.714L9,11L18.143,4.714" style="fill:rgb(76,131,242);stroke:white;stroke-width:1.9px;"/>
        </g>
    </g>
</svg>
