<svg width="35" height="22" viewBox="0 0 35 22" fill="none" xmlns="http://www.w3.org/2000/svg">
<path d="M7.5 0C11.477 0 14.7284 3.0957 14.9814 7.00879L15 7C15 7 15.3333 10 14 14C12.6667 18 11 22 11 22H8.5C8.5 22 9 21 9.5 17.5C9.63459 16.5579 9.58622 15.616 9.44629 14.7422C8.82539 14.9086 8.17341 15 7.5 15C3.35786 15 0 11.6421 0 7.5C0 3.35786 3.35786 0 7.5 0Z" fill="#F52330"/>
<path d="M26.5 0C30.477 0 33.7284 3.0957 33.9814 7.00879L34 7C34 7 34.3333 10 33 14C31.6667 18 30 22 30 22H27.5C27.5 22 28 21 28.5 17.5C28.6346 16.5579 28.5862 15.616 28.4463 14.7422C27.8254 14.9086 27.1734 15 26.5 15C22.3579 15 19 11.6421 19 7.5C19 3.35786 22.3579 0 26.5 0Z" fill="#F52330"/>
</svg>
