<?xml version="1.0" standalone="no"?>
<!DOCTYPE svg PUBLIC "-//W3C//DTD SVG 1.1//EN" "http://www.w3.org/Graphics/SVG/1.1/DTD/svg11.dtd">
<svg width="100%" height="100%" viewBox="0 0 120 120" version="1.1" xmlns="http://www.w3.org/2000/svg" xmlns:xlink="http://www.w3.org/1999/xlink" xml:space="preserve" style="fill-rule:evenodd;clip-rule:evenodd;stroke-linecap:round;stroke-linejoin:round;stroke-miterlimit:1.41421;">
    <g id="Group">
        <g id="Oval" transform="matrix(5.9,0,0,5.9,1,1)">
            <circle cx="10" cy="10" r="10" style="fill:rgb(36,161,110);fill-opacity:0.101961;"/>
        </g>
        <g transform="matrix(1,0,0,1,-1,-14)">
            <path d="M94,23L90,24L91,27L94,28L97,27L98,24L94,23Z" style="fill:rgb(255,134,0);"/>
        </g>
        <g id="Oval1" transform="matrix(3,0,0,3,30,30)">
            <circle cx="10" cy="10" r="10" style="fill:rgb(36,161,110);"/>
        </g>
        <g id="Path-3" transform="matrix(3,0,0,3,30,30)">
            <path d="M8.505,14.591L5.293,11.379L5.254,11.338L5.218,11.295L5.184,11.251L5.153,11.204L5.125,11.156L5.099,11.106L5.076,11.055L5.056,11.002L5.039,10.949L5.025,10.895L5.014,10.84L5.006,10.784L5.002,10.728L5,10.672L5.002,10.616L5.006,10.56L5.014,10.504L5.025,10.449L5.039,10.395L5.056,10.342L5.076,10.289L5.099,10.238L5.125,10.188L5.153,10.14L5.184,10.093L5.218,10.049L5.254,10.006L5.293,9.965L5.334,9.926L5.377,9.89L5.421,9.856L5.468,9.825L5.516,9.797L5.566,9.771L5.617,9.748L5.67,9.728L5.723,9.711L5.777,9.697L5.832,9.686L5.888,9.678L5.944,9.674L6,9.672L6.056,9.674L6.112,9.678L6.168,9.686L6.223,9.697L6.277,9.711L6.33,9.728L6.383,9.748L6.434,9.771L6.484,9.797L6.532,9.825L6.579,9.856L6.623,9.89L6.666,9.926L6.707,9.965L8.521,11.779L13.301,7.11L13.342,7.072L13.386,7.036L13.431,7.003L13.478,6.972L13.527,6.944L13.577,6.919L13.628,6.897L13.681,6.877L13.734,6.861L13.789,6.848L13.844,6.837L13.9,6.83L13.956,6.826L14.012,6.825L14.068,6.827L14.124,6.833L14.179,6.841L14.234,6.853L14.288,6.867L14.341,6.885L14.393,6.906L14.444,6.929L14.494,6.955L14.542,6.985L14.588,7.016L14.633,7.051L14.675,7.087L14.715,7.126L14.753,7.167L14.789,7.211L14.822,7.256L14.853,7.303L14.881,7.352L14.906,7.402L14.928,7.453L14.948,7.506L14.964,7.559L14.977,7.614L14.988,7.669L14.995,7.725L14.999,7.781L15,7.837L14.998,7.893L14.992,7.949L14.984,8.004L14.972,8.059L14.958,8.113L14.94,8.166L14.919,8.218L14.896,8.269L14.87,8.319L14.84,8.367L14.809,8.413L14.774,8.458L14.738,8.5L14.699,8.54L8.505,14.591Z" style="fill:white;"/>
        </g>
        <g transform="matrix(1.16733,0,0,1.16733,-10.0406,24.2425)">
            <path d="M14.5,50L15.069,51.75L16.164,51.209L15.989,52.418L17.829,52.418L16.34,53.5L17.193,54.375L15.989,54.582L16.557,56.332L15.069,55.25L14.5,56.332L13.931,55.25L12.443,56.332L13.011,54.582L11.807,54.375L12.66,53.5L11.171,52.418L13.011,52.418L12.836,51.209L13.931,51.75L14.5,50Z" style="fill:rgb(255,48,184);"/>
        </g>
        <g transform="matrix(1.25,0,0,1.25,-26.5,-3.69551)">
            <circle cx="112" cy="70" r="2" style="fill:rgb(255,181,3);"/>
        </g>
        <g transform="matrix(1,0,0,1,-47,-83)">
            <path d="M60,99L62,98L65,108L64,108L60,99Z" style="fill:rgb(0,152,255);"/>
        </g>
        <g transform="matrix(-0.764754,-0.148558,0.148558,-0.764754,111.141,193.399)">
            <path d="M60,99L62,98L65,108L64,108L60,99Z" style="fill:rgb(48,80,102);"/>
        </g>
        <g transform="matrix(1,0,0,1,2.5,6)">
            <path d="M100,37C100,37 109.06,33.901 109,38C108.94,42.099 102.23,38.964 107,35C108.472,33.777 111,33 111,33" style="fill:none;stroke-width:0.75px;stroke:rgb(72,198,175);"/>
        </g>
        <g transform="matrix(-0.707965,-0.190517,0.190517,-0.707965,106.297,152.771)">
            <path d="M100,37C100,37 109.06,33.901 109,38C108.94,42.099 102.23,38.964 107,35C108.472,33.777 111,33 111,33" style="fill:none;stroke-width:1.02px;stroke:rgb(230,63,88);"/>
        </g>
        <g transform="matrix(1,0,0,1,0,2)">
            <circle cx="16" cy="56" r="2" style="fill:rgb(255,88,67);"/>
        </g>
        <g transform="matrix(0.75,0,0,0.75,38.5,-39.5)">
            <circle cx="16" cy="56" r="2" style="fill:rgb(255,88,67);"/>
        </g>
    </g>
</svg>
