<?xml version="1.0" standalone="no"?>
<!DOCTYPE svg PUBLIC "-//W3C//DTD SVG 1.1//EN" "http://www.w3.org/Graphics/SVG/1.1/DTD/svg11.dtd">
<svg width="100%" height="100%" viewBox="0 0 120 120" version="1.1" xmlns="http://www.w3.org/2000/svg" xmlns:xlink="http://www.w3.org/1999/xlink" xml:space="preserve" style="fill-rule:evenodd;clip-rule:evenodd;stroke-linecap:round;stroke-linejoin:round;stroke-miterlimit:1.41421;">
    <g id="Group">
        <g id="Oval" transform="matrix(5.9,0,0,5.9,1,1)">
            <circle cx="10" cy="10" r="10" style="fill:rgb(222,4,72);fill-opacity:0.101961;"/>
        </g>
        <g transform="matrix(1,0,0,1,-1,-14)">
            <path d="M94,23L90,24L91,27L94,28L97,27L98,24L94,23Z" style="fill:rgb(255,134,0);"/>
        </g>
        <g id="Oval1" transform="matrix(3,0,0,3,30,30)">
            <circle cx="10" cy="10" r="10" style="fill:rgb(222,4,72);"/>
        </g>
        <g id="Path-3" transform="matrix(3,0,0,3,26.2305,28.485)">
            <path d="M8.501,14.185L8.455,14.183L8.409,14.18L8.363,14.174L8.318,14.166L8.273,14.156L8.228,14.144L8.184,14.129L8.141,14.113L8.098,14.095L8.057,14.075L8.016,14.053L7.977,14.029L7.938,14.003L7.901,13.976L7.865,13.947L7.831,13.916L7.798,13.884L7.766,13.85L7.736,13.815L7.708,13.778L7.681,13.74L7.657,13.701L7.634,13.661L7.613,13.62L7.594,13.578L7.576,13.535L7.561,13.492L7.548,13.447L7.537,13.403L7.528,13.357L7.521,13.312L7.516,13.266L7.514,13.219L7.513,13.173L7.515,13.127L7.518,13.081L7.524,13.035L7.532,12.99L7.542,12.945L7.554,12.9L7.569,12.856L7.585,12.813L7.603,12.77L7.623,12.729L7.645,12.688L7.669,12.649L7.695,12.61L7.722,12.573L7.751,12.537L7.782,12.503L7.814,12.47L13.301,7.11L13.335,7.078L13.37,7.048L13.407,7.02L13.445,6.993L13.484,6.969L13.524,6.946L13.565,6.925L13.607,6.906L13.65,6.888L13.693,6.873L13.738,6.86L13.782,6.849L13.828,6.84L13.873,6.833L13.919,6.828L13.966,6.826L14.012,6.825L14.058,6.827L14.104,6.83L14.15,6.836L14.195,6.844L14.24,6.854L14.285,6.866L14.329,6.881L14.372,6.897L14.415,6.915L14.456,6.935L14.497,6.957L14.536,6.981L14.575,7.007L14.612,7.034L14.648,7.063L14.682,7.094L14.715,7.126L14.747,7.16L14.777,7.195L14.805,7.232L14.832,7.27L14.856,7.309L14.879,7.349L14.9,7.39L14.919,7.432L14.937,7.475L14.952,7.518L14.965,7.563L14.976,7.607L14.985,7.653L14.992,7.698L14.997,7.744L14.999,7.791L15,7.837L14.998,7.883L14.995,7.929L14.989,7.975L14.981,8.02L14.971,8.065L14.959,8.11L14.944,8.154L14.928,8.197L14.91,8.24L14.89,8.281L14.868,8.322L14.844,8.361L14.818,8.4L14.791,8.437L14.762,8.473L14.731,8.507L14.699,8.54L9.212,13.9L9.178,13.932L9.143,13.962L9.106,13.99L9.068,14.017L9.029,14.041L8.989,14.064L8.948,14.085L8.906,14.104L8.863,14.122L8.82,14.137L8.775,14.15L8.731,14.161L8.685,14.17L8.64,14.177L8.594,14.182L8.547,14.184L8.501,14.185Z" style="fill:white;"/>
        </g>
        <g id="Path-31" transform="matrix(-3,0,-0,3,93.7695,28.485)">
            <path d="M8.501,14.185L8.547,14.184L8.594,14.182L8.64,14.177L8.685,14.17L8.731,14.161L8.775,14.15L8.82,14.137L8.863,14.122L8.906,14.104L8.948,14.085L8.989,14.064L9.029,14.041L9.068,14.017L9.106,13.99L9.143,13.962L9.178,13.932L9.212,13.9L14.699,8.54L14.731,8.507L14.762,8.473L14.791,8.437L14.818,8.4L14.844,8.361L14.868,8.322L14.89,8.281L14.91,8.24L14.928,8.197L14.944,8.154L14.959,8.11L14.971,8.065L14.981,8.02L14.989,7.975L14.995,7.929L14.998,7.883L15,7.837L14.999,7.791L14.997,7.744L14.992,7.698L14.985,7.653L14.976,7.607L14.965,7.563L14.952,7.518L14.937,7.475L14.919,7.432L14.9,7.39L14.879,7.349L14.856,7.309L14.832,7.27L14.805,7.232L14.777,7.195L14.747,7.16L14.715,7.126L14.682,7.094L14.648,7.063L14.612,7.034L14.575,7.007L14.536,6.981L14.497,6.957L14.456,6.935L14.415,6.915L14.372,6.897L14.329,6.881L14.285,6.866L14.24,6.854L14.195,6.844L14.15,6.836L14.104,6.83L14.058,6.827L14.012,6.825L13.966,6.826L13.919,6.828L13.873,6.833L13.828,6.84L13.782,6.849L13.738,6.86L13.693,6.873L13.65,6.888L13.607,6.906L13.565,6.925L13.524,6.946L13.484,6.969L13.445,6.993L13.407,7.02L13.37,7.048L13.335,7.078L13.301,7.11L7.814,12.47L7.782,12.503L7.751,12.537L7.722,12.573L7.695,12.61L7.669,12.649L7.645,12.688L7.623,12.729L7.603,12.77L7.585,12.813L7.569,12.856L7.554,12.9L7.542,12.945L7.532,12.99L7.524,13.035L7.518,13.081L7.515,13.127L7.513,13.173L7.514,13.219L7.516,13.266L7.521,13.312L7.528,13.357L7.537,13.403L7.548,13.447L7.561,13.492L7.576,13.535L7.594,13.578L7.613,13.62L7.634,13.661L7.657,13.701L7.681,13.74L7.708,13.778L7.736,13.815L7.766,13.85L7.798,13.884L7.831,13.916L7.865,13.947L7.901,13.976L7.938,14.003L7.977,14.029L8.016,14.053L8.057,14.075L8.098,14.095L8.141,14.113L8.184,14.129L8.228,14.144L8.273,14.156L8.318,14.166L8.363,14.174L8.409,14.18L8.455,14.183L8.501,14.185Z" style="fill:white;"/>
        </g>
        <g transform="matrix(1.16733,0,0,1.16733,-10.0406,24.2425)">
            <path d="M14.5,50L15.069,51.75L16.164,51.209L15.989,52.418L17.829,52.418L16.34,53.5L17.193,54.375L15.989,54.582L16.557,56.332L15.069,55.25L14.5,56.332L13.931,55.25L12.443,56.332L13.011,54.582L11.807,54.375L12.66,53.5L11.171,52.418L13.011,52.418L12.836,51.209L13.931,51.75L14.5,50Z" style="fill:rgb(255,48,184);"/>
        </g>
        <g transform="matrix(1.25,0,0,1.25,-26.5,-3.69551)">
            <circle cx="112" cy="70" r="2" style="fill:rgb(255,181,3);"/>
        </g>
        <g transform="matrix(1,0,0,1,-47,-83)">
            <path d="M60,99L62,98L65,108L64,108L60,99Z" style="fill:rgb(0,152,255);"/>
        </g>
        <g transform="matrix(-0.764754,-0.148558,0.148558,-0.764754,111.141,193.399)">
            <path d="M60,99L62,98L65,108L64,108L60,99Z" style="fill:rgb(48,80,102);"/>
        </g>
        <g transform="matrix(1,0,0,1,2.5,6)">
            <path d="M100,37C100,37 109.06,33.901 109,38C108.94,42.099 102.23,38.964 107,35C108.472,33.777 111,33 111,33" style="fill:none;stroke-width:0.75px;stroke:rgb(72,198,175);"/>
        </g>
        <g transform="matrix(-0.707965,-0.190517,0.190517,-0.707965,106.297,152.771)">
            <path d="M100,37C100,37 109.06,33.901 109,38C108.94,42.099 102.23,38.964 107,35C108.472,33.777 111,33 111,33" style="fill:none;stroke-width:1.02px;stroke:rgb(230,63,88);"/>
        </g>
        <g transform="matrix(1,0,0,1,0,2)">
            <circle cx="16" cy="56" r="2" style="fill:rgb(255,88,67);"/>
        </g>
        <g transform="matrix(0.75,0,0,0.75,38.5,-39.5)">
            <circle cx="16" cy="56" r="2" style="fill:rgb(255,88,67);"/>
        </g>
    </g>
</svg>
