<?xml version="1.0" encoding="UTF-8" standalone="no"?>
<!DOCTYPE svg PUBLIC "-//W3C//DTD SVG 1.1//EN" "http://www.w3.org/Graphics/SVG/1.1/DTD/svg11.dtd">
<svg width="100%" height="100%" viewBox="0 0 32 16" version="1.1" xmlns="http://www.w3.org/2000/svg" xmlns:xlink="http://www.w3.org/1999/xlink" xml:space="preserve" xmlns:serif="http://www.serif.com/" style="fill-rule:evenodd;clip-rule:evenodd;stroke-linecap:round;stroke-linejoin:round;stroke-miterlimit:1.5;">
    <g>
        <g transform="matrix(1.95975,0,0,1,1.0505,0)">
            <path d="M6.1,2.96L6.1,13.009C6.1,14.114 5.642,15.011 5.078,15.011L2.014,15.011C1.45,15.011 0.993,14.114 0.993,13.009L0.993,2.96C0.993,1.855 1.45,0.959 2.014,0.959L5.078,0.959C5.642,0.959 6.1,1.855 6.1,2.96Z" style="fill:none;stroke:rgb(69,74,87);stroke-width:0.8px;"/>
        </g>
        <g transform="matrix(1.95975,0,0,0.785977,3.31084,2.24267)">
            <path d="M4.946,0.959L5.18,0.959C5.688,0.959 6.1,1.986 6.1,3.251L6.1,12.719C6.1,13.984 5.688,15.011 5.18,15.011L4.946,15.011" style="fill:none;stroke:rgb(69,74,87);stroke-width:0.84px;"/>
        </g>
        <g transform="matrix(1.95975,0,0,0.785977,-1.20985,2.24267)">
            <path d="M2.146,15.011L1.912,15.011C1.405,15.011 0.993,13.984 0.993,12.719L0.993,3.251C0.993,1.986 1.405,0.959 1.912,0.959L2.146,0.959" style="fill:none;stroke:rgb(69,74,87);stroke-width:0.84px;"/>
        </g>
    </g>
    <g transform="matrix(1,0,0,1,16,0)">
        <g transform="matrix(1.95975,0,0,1,1.0505,0)">
            <path d="M6.1,2.96L6.1,13.009C6.1,14.114 5.642,15.011 5.078,15.011L2.014,15.011C1.45,15.011 0.993,14.114 0.993,13.009L0.993,2.96C0.993,1.855 1.45,0.959 2.014,0.959L5.078,0.959C5.642,0.959 6.1,1.855 6.1,2.96Z" style="fill:none;stroke:white;stroke-width:0.8px;"/>
        </g>
        <g transform="matrix(1.95975,0,0,0.785977,3.31084,2.24267)">
            <path d="M4.946,0.959L5.18,0.959C5.688,0.959 6.1,1.986 6.1,3.251L6.1,12.719C6.1,13.984 5.688,15.011 5.18,15.011L4.946,15.011" style="fill:none;stroke:white;stroke-width:0.84px;"/>
        </g>
        <g transform="matrix(1.95975,0,0,0.785977,-1.20985,2.24267)">
            <path d="M2.146,15.011L1.912,15.011C1.405,15.011 0.993,13.984 0.993,12.719L0.993,3.251C0.993,1.986 1.405,0.959 1.912,0.959L2.146,0.959" style="fill:none;stroke:white;stroke-width:0.84px;"/>
        </g>
    </g>
</svg>
