<?xml version="1.0" encoding="UTF-8" standalone="no"?>
<!DOCTYPE svg PUBLIC "-//W3C//DTD SVG 1.1//EN" "http://www.w3.org/Graphics/SVG/1.1/DTD/svg11.dtd">
<svg width="100%" height="100%" viewBox="0 0 32 16" version="1.1" xmlns="http://www.w3.org/2000/svg" xmlns:xlink="http://www.w3.org/1999/xlink" xml:space="preserve" xmlns:serif="http://www.serif.com/" style="fill-rule:evenodd;clip-rule:evenodd;stroke-linecap:round;stroke-linejoin:round;stroke-miterlimit:1.5;">
    <g transform="matrix(1,0,0,1,0.011495,-0.0168937)">
        <g transform="matrix(0.799472,0,0,0.799472,0.674907,0.705995)">
            <path d="M7.508,1.877L7.508,5.631C7.508,6.667 6.667,7.508 5.631,7.508L1.877,7.508C0.841,7.508 0,6.667 0,5.631L0,1.877C0,0.841 0.841,0 1.877,0L5.631,0C6.667,0 7.508,0.841 7.508,1.877Z" style="fill:none;stroke:rgb(69,74,87);stroke-width:1.56px;"/>
        </g>
        <g transform="matrix(0.799472,0,0,0.799472,9.3,0.705995)">
            <path d="M7.508,1.877L7.508,5.631C7.508,6.667 6.667,7.508 5.631,7.508L1.877,7.508C0.841,7.508 0,6.667 0,5.631L0,1.877C0,0.841 0.841,0 1.877,0L5.631,0C6.667,0 7.508,0.841 7.508,1.877Z" style="fill:none;stroke:rgb(69,74,87);stroke-width:1.56px;"/>
        </g>
    </g>
    <g transform="matrix(1,0,0,1,16.0115,-0.0168937)">
        <g transform="matrix(0.799472,0,0,0.799472,0.674907,0.705995)">
            <path d="M7.508,1.877L7.508,5.631C7.508,6.667 6.667,7.508 5.631,7.508L1.877,7.508C0.841,7.508 0,6.667 0,5.631L0,1.877C0,0.841 0.841,0 1.877,0L5.631,0C6.667,0 7.508,0.841 7.508,1.877Z" style="fill:none;stroke:white;stroke-width:1.56px;"/>
        </g>
        <g transform="matrix(0.799472,0,0,0.799472,9.3,0.705995)">
            <path d="M7.508,1.877L7.508,5.631C7.508,6.667 6.667,7.508 5.631,7.508L1.877,7.508C0.841,7.508 0,6.667 0,5.631L0,1.877C0,0.841 0.841,0 1.877,0L5.631,0C6.667,0 7.508,0.841 7.508,1.877Z" style="fill:none;stroke:white;stroke-width:1.56px;"/>
        </g>
    </g>
    <g transform="matrix(1,0,0,1,0.011495,8.5912)">
        <g transform="matrix(0.799472,0,0,0.799472,0.674907,0.705995)">
            <path d="M7.508,1.877L7.508,5.631C7.508,6.667 6.667,7.508 5.631,7.508L1.877,7.508C0.841,7.508 0,6.667 0,5.631L0,1.877C0,0.841 0.841,0 1.877,0L5.631,0C6.667,0 7.508,0.841 7.508,1.877Z" style="fill:none;stroke:rgb(69,74,87);stroke-width:1.56px;"/>
        </g>
        <g transform="matrix(0.799472,0,0,0.799472,9.3,0.705995)">
            <path d="M7.508,1.877L7.508,5.631C7.508,6.667 6.667,7.508 5.631,7.508L1.877,7.508C0.841,7.508 0,6.667 0,5.631L0,1.877C0,0.841 0.841,0 1.877,0L5.631,0C6.667,0 7.508,0.841 7.508,1.877Z" style="fill:none;stroke:rgb(69,74,87);stroke-width:1.56px;"/>
        </g>
    </g>
    <g transform="matrix(1,0,0,1,16.0115,8.5912)">
        <g transform="matrix(0.799472,0,0,0.799472,0.674907,0.705995)">
            <path d="M7.508,1.877L7.508,5.631C7.508,6.667 6.667,7.508 5.631,7.508L1.877,7.508C0.841,7.508 0,6.667 0,5.631L0,1.877C0,0.841 0.841,0 1.877,0L5.631,0C6.667,0 7.508,0.841 7.508,1.877Z" style="fill:none;stroke:white;stroke-width:1.56px;"/>
        </g>
        <g transform="matrix(0.799472,0,0,0.799472,9.3,0.705995)">
            <path d="M7.508,1.877L7.508,5.631C7.508,6.667 6.667,7.508 5.631,7.508L1.877,7.508C0.841,7.508 0,6.667 0,5.631L0,1.877C0,0.841 0.841,0 1.877,0L5.631,0C6.667,0 7.508,0.841 7.508,1.877Z" style="fill:none;stroke:white;stroke-width:1.56px;"/>
        </g>
    </g>
</svg>
