<?xml version="1.0" encoding="UTF-8" standalone="no"?>
<!DOCTYPE svg PUBLIC "-//W3C//DTD SVG 1.1//EN" "http://www.w3.org/Graphics/SVG/1.1/DTD/svg11.dtd">
<svg width="100%" height="100%" viewBox="0 0 32 16" version="1.1" xmlns="http://www.w3.org/2000/svg" xmlns:xlink="http://www.w3.org/1999/xlink" xml:space="preserve" xmlns:serif="http://www.serif.com/" style="fill-rule:evenodd;clip-rule:evenodd;stroke-linecap:round;stroke-linejoin:round;stroke-miterlimit:1.5;">
    <g>
        <g transform="matrix(0.985942,0,0,1.13807,0.31591,-2.80028)">
            <path d="M14.901,7.48L14.901,11.488C14.901,12.68 13.784,13.648 12.408,13.648C12.408,13.648 9.332,13.897 7.794,13.897C6.255,13.897 3.179,13.648 3.179,13.648C1.803,13.648 0.686,12.68 0.686,11.488L0.686,7.48C0.686,6.289 1.803,5.321 3.179,5.321C3.179,5.321 6.255,5.093 7.794,5.093C9.332,5.093 12.408,5.321 12.408,5.321C13.784,5.321 14.901,6.289 14.901,7.48Z" style="fill:none;stroke:rgb(69,74,87);stroke-width:1.17px;"/>
        </g>
        <g transform="matrix(5.40205e-17,0.882222,-0.939089,5.75026e-17,15.9389,0.116369)">
            <path d="M8.467,6.573C8.569,6.422 8.746,6.33 8.936,6.33C9.126,6.33 9.303,6.422 9.405,6.573C9.913,7.324 10.722,8.522 11.257,9.313C11.366,9.474 11.373,9.678 11.275,9.844C11.178,10.011 10.991,10.115 10.789,10.115C9.745,10.115 8.127,10.115 7.084,10.115C6.881,10.115 6.695,10.011 6.597,9.844C6.499,9.678 6.506,9.474 6.615,9.313C7.15,8.522 7.959,7.324 8.467,6.573Z" style="fill:none;stroke:rgb(69,74,87);stroke-width:1.37px;"/>
        </g>
    </g>
    <g transform="matrix(1,0,0,1,16,0)">
        <g transform="matrix(0.985942,0,0,1.13807,0.31591,-2.80028)">
            <path d="M14.901,7.48L14.901,11.488C14.901,12.68 13.784,13.648 12.408,13.648C12.408,13.648 9.332,13.897 7.794,13.897C6.255,13.897 3.179,13.648 3.179,13.648C1.803,13.648 0.686,12.68 0.686,11.488L0.686,7.48C0.686,6.289 1.803,5.321 3.179,5.321C3.179,5.321 6.255,5.093 7.794,5.093C9.332,5.093 12.408,5.321 12.408,5.321C13.784,5.321 14.901,6.289 14.901,7.48Z" style="fill:none;stroke:white;stroke-width:1.17px;"/>
        </g>
        <g transform="matrix(5.40205e-17,0.882222,-0.939089,5.75026e-17,15.9389,0.116369)">
            <path d="M8.467,6.573C8.569,6.422 8.746,6.33 8.936,6.33C9.126,6.33 9.303,6.422 9.405,6.573C9.913,7.324 10.722,8.522 11.257,9.313C11.366,9.474 11.373,9.678 11.275,9.844C11.178,10.011 10.991,10.115 10.789,10.115C9.745,10.115 8.127,10.115 7.084,10.115C6.881,10.115 6.695,10.011 6.597,9.844C6.499,9.678 6.506,9.474 6.615,9.313C7.15,8.522 7.959,7.324 8.467,6.573Z" style="fill:none;stroke:white;stroke-width:1.37px;"/>
        </g>
    </g>
</svg>
